<svg width="96" height="23" viewBox="0 0 96 23" fill="none" xmlns="http://www.w3.org/2000/svg">
<path fill-rule="evenodd" clip-rule="evenodd" d="M37.36 16.6256L36.0388 22.736H33L38.0206 0.590896H41.6203L46.3436 22.736H43.2718L41.9836 16.6256H37.36ZM41.6203 14.1612L40.5964 8.87055C40.2991 7.35908 40.0018 5.3887 39.7712 3.81097H39.6385C39.4078 5.42101 39.0764 7.45766 38.7803 8.87055L37.7233 14.1612H41.6203ZM57.9427 0V18.6294C57.9427 19.8456 58.0088 21.62 58.0743 22.7366H55.3994L55.2012 20.7985H55.1021C54.5736 21.9151 53.3515 23 51.7336 23C48.7609 23 46.9442 19.7794 46.9442 14.8189C46.9442 9.16736 49.3549 6.50587 51.8987 6.50587C53.1864 6.50587 54.2103 7.09786 54.7718 8.31306H54.8379V0H57.9427V0ZM54.8373 12.8469C54.8373 12.5517 54.8373 12.1903 54.8043 11.8606C54.6391 10.4154 53.8134 9.16681 52.6909 9.16681C50.7416 9.16681 50.0815 11.8606 50.0815 14.8184C50.0815 18.1042 50.9403 20.4037 52.5918 20.4037C53.2854 20.4037 54.2097 20.0422 54.7382 18.137C54.8043 17.8742 54.8373 17.4793 54.8373 17.119V12.8469V12.8469ZM65.3381 22.9995C62.1348 22.9995 59.8221 20.2722 59.8221 14.7861C59.8221 8.96967 62.5631 6.50532 65.5027 6.50532C68.6736 6.50532 70.9522 9.33111 70.9522 14.7198C70.9522 21.0614 67.8143 22.9995 65.3706 22.9995H65.3381ZM65.4367 20.5685C67.3519 20.5685 67.7818 17.1841 67.7818 14.7532C67.7818 12.354 67.3524 8.93736 65.3712 8.93736C63.3228 8.93736 62.9269 12.354 62.9269 14.7532C62.9269 17.4142 63.3894 20.5685 65.4042 20.5685H65.4367ZM72.8239 0H75.9281V8.57537H75.9942C76.82 7.13017 77.943 6.50532 79.3633 6.50532C82.1042 6.50532 83.8223 9.59397 83.8223 14.4898C83.8223 20.2065 81.4772 22.9995 78.8348 22.9995C77.2494 22.9995 76.3575 22.1446 75.6634 20.7317H75.5323L75.3666 22.736H72.6917C72.7578 21.6523 72.8239 19.8451 72.8239 18.6288V0V0ZM75.9281 17.0845C75.9281 17.447 75.9612 17.8084 76.0603 18.0708C76.5552 20.0099 77.5136 20.4037 78.1406 20.4037C79.9903 20.4037 80.6839 17.9727 80.6839 14.6869C80.6839 11.6312 79.9578 9.16681 78.1076 9.16681C77.0837 9.16681 76.2579 10.3826 76.0267 11.5326C75.9606 11.8612 75.9276 12.2889 75.9276 12.6169V17.0845H75.9281V17.0845ZM88.4036 15.3764C88.4367 19.4837 90.2197 20.5017 92.1024 20.5017C93.2255 20.5017 94.1833 20.2394 94.877 19.9103L95.3394 22.1446C94.3815 22.6375 92.9282 22.9009 91.5079 22.9009C87.4788 22.9009 85.3649 19.878 85.3649 14.9493C85.3649 9.72485 87.7755 6.50478 91.1115 6.50478C94.4476 6.50478 96 9.692 96 13.7012C96 14.4893 95.9664 14.9827 95.9339 15.4093L88.4036 15.3764V15.3764ZM93.0603 13.1755C93.0934 10.3497 92.1024 8.83878 90.8809 8.83878C89.2619 8.83878 88.5352 11.1717 88.4367 13.1755H93.0603Z" fill="black"/>
<path fill-rule="evenodd" clip-rule="evenodd" d="M15.7584 1H25V23L15.7584 1ZM9.24814 1H0V23L9.24814 1ZM12.5038 9.10776L18.3921 23H14.5335L12.7726 18.5755H8.46261L12.5038 9.10776Z" fill="#CC2131"/>
</svg>
