<svg width="94" height="121" viewBox="0 0 94 121" fill="none" xmlns="http://www.w3.org/2000/svg">
<path d="M21.0211 0H84.6132C85.0098 0 85.4505 0.4396 85.9353 1.3188V16.551C85.9353 16.9466 86.376 17.3862 87.2574 17.8698H89.0422C89.7473 17.8698 90.3643 17.7159 90.8931 17.4082C92.3474 17.8038 93.0745 18.2434 93.0745 18.727V19.6501C93.0745 20.2216 92.7881 20.5074 92.2152 20.5074H89.9676V22.7493C89.9676 23.3648 89.6592 23.6725 89.0422 23.6725H58.1716C55.0427 23.6725 50.2832 23.8263 43.8931 24.1341V28.1564C43.9812 28.7279 44.2677 29.0136 44.7525 29.0136H48.7848C49.4018 29.1015 49.7103 29.4093 49.7103 29.9368V49.1253H88.6456C89.2185 49.2133 89.5049 49.499 89.5049 49.9826V56.7084C89.5049 57.2799 87.8744 57.7195 84.6132 58.0272L83.6878 57.5657L81.0436 58.0272C80.4266 57.7195 79.9639 57.5657 79.6554 57.5657L79.1927 59.8076V67.3907L79.6554 71.8747L78.3333 72.7978H40.2574C40.2574 73.8089 39.2218 74.4024 37.1505 74.5782L34.4402 74.1166H33.5809C32.9639 74.2045 32.6554 74.5123 32.6554 75.0398V75.4354H35.3657L39.8608 75.897V90.6676C39.8608 92.2501 40.7421 93.1293 42.5049 93.3052C42.5049 93.9646 42.6592 94.558 42.9676 95.0856C42.6592 95.6131 42.5049 96.2065 42.5049 96.8659V97.3275H85.0759C85.6488 97.3275 86.0895 98.8222 86.398 101.811H93.0745C93.6915 101.899 94 102.185 94 102.669C94 103.284 93.6915 103.592 93.0745 103.592H88.1828L85.9353 104.053V121H12.5598C12.2513 121 12.097 120.846 12.097 120.538L11.1716 121H8.52743C8.08673 121 7.624 120.56 7.13924 119.681V118.758C7.13924 118.45 7.29348 118.296 7.60197 118.296L7.13924 117.439V106.691L4.8917 106.295H0.925457C0.308486 106.295 0 105.988 0 105.372V104.449C0.0881388 103.878 0.396624 103.592 0.925457 103.592C5.9053 103.284 9.7834 103.13 12.5598 103.13H14.3446V102.273L9.84951 101.811H8.0647C7.44773 101.811 7.13924 101.372 7.13924 100.493L7.60197 99.5695C7.29348 99.042 7.13924 98.4485 7.13924 97.7891C7.13924 97.3935 8.04266 96.9539 9.84951 96.4703C10.158 95.9428 10.3122 95.3273 10.3122 94.624C10.3122 93.3491 9.25457 92.6238 7.13924 92.448V77.2158L7.60197 76.3586L6.74262 75.897H0.925457C0.308486 75.897 0 75.6113 0 75.0398C0.0881388 74.4243 0.396624 74.1166 0.925457 74.1166H6.27989C6.85279 74.1166 7.13924 73.8089 7.13924 73.1935V58.4888C7.13924 57.8734 7.60197 57.5657 8.52743 57.5657C9.45288 57.5657 12.2733 57.4338 16.9887 57.17V29.9368C16.9887 29.0136 15.3582 28.552 12.097 28.552H11.1716V21.4305L14.3446 19.6501V18.727C14.3446 18.1555 14.0361 17.8698 13.4191 17.8698H8.0647C7.44773 17.8698 7.13924 17.562 7.13924 16.9466V1.3188L7.60197 0.46158C13.5954 0.15386 18.0684 0 21.0211 0ZM4.03235 53.6093H6.27989C6.85279 53.6972 7.13924 53.9829 7.13924 54.4665V56.7084C7.13924 57.2799 6.85279 57.5657 6.27989 57.5657H4.03235C3.41538 57.5657 3.10689 57.2799 3.10689 56.7084V54.4665C3.2391 53.895 3.54759 53.6093 4.03235 53.6093ZM20.1617 103.13H24.1941V102.273H21.0211C20.4482 102.361 20.1617 102.647 20.1617 103.13ZM68.4838 103.592V105.372C68.572 105.988 68.8804 106.295 69.4093 106.295H75.6231C75.6231 105.944 75.7773 105.482 76.0858 104.911C75.7773 104.339 75.6231 103.9 75.6231 103.592H68.4838Z" fill="#8FFF82"/>
<path d="M70.5 63.5H22.5V71.5H70.5V63.5Z" stroke="black" stroke-width="3" stroke-linecap="round" stroke-linejoin="round"/>
<path d="M66.5 77.5V91.5H26.5V77.5" stroke="black" stroke-width="3" stroke-linecap="round" stroke-linejoin="round"/>
<path d="M77.5 56.5L77.494 74.494C77.4948 75.2824 77.3402 76.0633 77.039 76.7919C76.7378 77.5206 76.296 78.1827 75.7388 78.7405C75.1815 79.2983 74.5198 79.7408 73.7915 80.0427C73.0631 80.3446 72.2824 80.5 71.494 80.5H66.5" stroke="black" stroke-width="3" stroke-linecap="round" stroke-linejoin="round"/>
<path d="M35.5 81.5H57.499" stroke="black" stroke-width="3" stroke-linecap="round" stroke-linejoin="round"/>
<path d="M58.5 46.5H34.5V57.5H58.5V46.5Z" stroke="black" stroke-width="3" stroke-linecap="round" stroke-linejoin="round"/>
<path d="M77.5 56.5C79.7091 56.5 81.5 54.7091 81.5 52.5C81.5 50.2909 79.7091 48.5 77.5 48.5C75.2909 48.5 73.5 50.2909 73.5 52.5C73.5 54.7091 75.2909 56.5 77.5 56.5Z" stroke="black" stroke-width="3" stroke-linecap="round" stroke-linejoin="round"/>
<path d="M42.5 47.5V57.5" stroke="black" stroke-width="3" stroke-linecap="round" stroke-linejoin="round"/>
<path d="M50.5 47.5V57.5" stroke="black" stroke-width="3" stroke-linecap="round" stroke-linejoin="round"/>
<path d="M26.5 57.5V39.5H38.762C39.2037 37.7834 40.2036 36.2623 41.6044 35.1763C43.0053 34.0902 44.7275 33.5008 46.5 33.5008C48.2725 33.5008 49.9947 34.0902 51.3956 35.1763C52.7964 36.2623 53.7963 37.7834 54.238 39.5H66.5V57.5" stroke="black" stroke-width="3" stroke-linecap="round" stroke-linejoin="round"/>
</svg>
