<svg width="122" height="121" viewBox="0 0 122 121" fill="none" xmlns="http://www.w3.org/2000/svg">
<path d="M16.9848 0C19.8487 0 26.3915 0.154112 36.6132 0.462336C47.0553 15.7414 52.8711 23.6232 54.0607 24.1075C55.2062 24.1075 56.8364 25.1423 58.9512 27.2118H73.2925C73.8653 27.2999 74.1517 27.6081 74.1517 28.1365C74.1517 28.7089 73.8653 28.9951 73.2925 28.9951H71.9047C71.2438 28.9951 70.649 28.863 70.1203 28.5988C69.6356 28.863 69.0408 28.9951 68.3359 28.9951C67.675 28.9951 67.0802 28.863 66.5515 28.5988L63.9079 28.9951H61.1983L60.3391 28.5988L59.8765 29.4574C63.4012 34.1689 72.0368 46.5198 85.7833 66.5104L83.5363 67.435C87.6338 73.5995 90.3214 77.1661 91.5991 78.1348L92.0618 75.8892V73.6436C92.0618 71.8823 91.1585 69.8128 89.3521 67.435C90.8501 67.1268 91.5991 66.8186 91.5991 66.5104C90.1011 64.2207 89.3521 62.7456 89.3521 62.0852C89.9249 61.7769 90.3655 61.6228 90.6739 61.6228C89.7927 60.522 89.3521 59.4873 89.3521 58.5186V34.8073C87.8541 34.8073 87.1051 34.6752 87.1051 34.411L86.2459 34.8073C85.6291 34.8073 85.3207 34.5211 85.3207 33.9487V33.4864C85.4088 32.8699 85.7172 32.5617 86.2459 32.5617H89.3521V24.5699C87.5457 24.5699 86.6425 24.2616 86.6425 23.6452V1.32096L87.1051 0.462336C93.0531 0.154112 97.5251 0 100.521 0H116.581C116.889 0 117.043 0.154112 117.043 0.462336L117.969 0C118.541 0.0880641 118.828 0.396288 118.828 0.924673V24.1075C120.766 24.1075 121.824 24.5479 122 25.4285V31.7031C122 32.1434 121.537 32.5837 120.612 33.024H117.969V34.411H120.612C121.053 34.411 121.515 34.8513 122 35.732V66.1141L118.828 67.8974V85.268C118.828 85.6643 117.947 86.2587 116.184 87.0513L116.581 90.2216V100.921C118.079 100.921 118.828 101.208 118.828 101.78V118.292L119.29 120.538L118.365 121H98.2741C95.3221 121 90.8501 120.846 84.8581 120.538C76.6631 107.9 71.9047 101.362 70.5829 100.921C69.217 100.921 67.7411 99.2702 66.1549 95.9678C61.6609 90.1996 59.4139 86.9412 59.4139 86.1927H60.7356V85.268L48.2449 67.435C49.7429 67.1268 50.4919 66.8186 50.4919 66.5104L44.2134 57.5939V51.3193C44.2134 49.6461 42.5832 46.6739 39.3229 42.4028H38.8602V66.1141L36.2167 67.8974V68.756H41.1073C41.68 68.8441 41.9664 69.1523 41.9664 69.6807V71.0016C41.9664 71.442 41.5258 71.8823 40.6446 72.3226H36.2167L35.7541 77.6725V91.0802L36.2167 93.3259C35.5117 93.8983 34.6085 94.1845 33.507 94.1845V96.8925L35.7541 98.6758V113.867L36.2167 116.509C35.9083 117.037 35.7541 117.632 35.7541 118.292L36.2167 120.538L35.2914 121H15.6631C13.1076 121 9.0762 120.846 3.5688 120.538L3.10618 119.679V119.217C3.10618 118.908 3.26038 118.754 3.5688 118.754L3.10618 117.896V98.6758L0.925244 96.8925V95.1092L3.10618 93.3259V73.2473C3.10618 72.807 3.5688 72.3446 4.49404 71.8603H8.45937C9.0762 71.8603 9.38462 71.5741 9.38462 71.0016V69.6807C9.38462 69.0642 9.0762 68.756 8.45937 68.756H4.03142C3.41459 68.756 3.10618 68.4698 3.10618 67.8974C3.19429 67.2809 3.50271 66.9727 4.03142 66.9727H6.27844V66.1141C6.27844 65.1013 6.41062 64.3528 6.67497 63.8685L6.27844 61.6228L6.67497 59.8395C6.67497 59.5313 6.5428 59.3772 6.27844 59.3772L6.67497 57.1316V56.2729C6.67497 55.0841 6.5428 54.4896 6.27844 54.4896L6.67497 51.3193V49.536C6.67497 45.6612 6.5428 40.6195 6.27844 34.411L6.67497 33.4864L6.27844 32.5617C6.5428 30.184 6.98339 28.9951 7.60022 28.9951H11.6316C13.7024 28.9951 16.9628 28.863 21.4128 28.5988V27.6741H21.0163C18.8133 27.6741 17.1611 27.52 16.0596 27.2118C14.121 27.52 12.1824 27.6741 10.2438 27.6741C7.2918 27.6741 5.81582 26.6394 5.81582 24.5699C4.00939 24.5699 3.10618 24.1295 3.10618 23.2489V1.32096L3.5688 0.462336C9.95739 0.154112 14.4294 0 16.9848 0ZM0.925244 32.5617H1.7844C2.40123 32.6938 2.70964 33.002 2.70964 33.4864C2.70964 34.1468 1.96064 34.5872 0.462622 34.8073L0 33.9487V33.4864C0.0881185 32.8699 0.396533 32.5617 0.925244 32.5617ZM81.2893 32.5617H81.7519C82.3687 32.6938 82.6771 33.002 82.6771 33.4864V33.9487C82.6771 34.5211 82.3687 34.8073 81.7519 34.8073C81.3113 34.8073 80.8707 34.367 80.4301 33.4864C80.5182 32.8699 80.8046 32.5617 81.2893 32.5617ZM92.4583 63.8685C92.5464 64.4409 92.8548 64.7271 93.3835 64.7271V63.8685H92.4583ZM94.2427 65.1894V66.1141H94.7053V65.1894H94.2427Z" fill="#8FFF82"/>
<path d="M35.5 106.5H29.5V71.5H35.5" stroke="black" stroke-width="3" stroke-linecap="round" stroke-linejoin="round"/>
<path d="M79.5 71.5H85.5V106.5H79.5" stroke="black" stroke-width="3" stroke-linecap="round" stroke-linejoin="round"/>
<path d="M47.5 73.5H54.5" stroke="black" stroke-width="3" stroke-linecap="round" stroke-linejoin="round"/>
<path d="M60.5 73.5H67.5" stroke="black" stroke-width="3" stroke-linecap="round" stroke-linejoin="round"/>
<path d="M47.5 79.5H54.5" stroke="black" stroke-width="3" stroke-linecap="round" stroke-linejoin="round"/>
<path d="M60.5 79.5H67.5" stroke="black" stroke-width="3" stroke-linecap="round" stroke-linejoin="round"/>
<path d="M47.5 85.5H54.5" stroke="black" stroke-width="3" stroke-linecap="round" stroke-linejoin="round"/>
<path d="M60.5 85.5H67.5" stroke="black" stroke-width="3" stroke-linecap="round" stroke-linejoin="round"/>
<path d="M47.5 91.5H54.5" stroke="black" stroke-width="3" stroke-linecap="round" stroke-linejoin="round"/>
<path d="M60.5 91.5H67.5" stroke="black" stroke-width="3" stroke-linecap="round" stroke-linejoin="round"/>
<path d="M74.5 71.5V106.5H61.5V101.5C61.5 100.439 61.0786 99.4217 60.3284 98.6716C59.5783 97.9214 58.5609 97.5 57.5 97.5C56.4391 97.5 55.4217 97.9214 54.6716 98.6716C53.9214 99.4217 53.5 100.439 53.5 101.5V106.5H40.5V71.5" stroke="black" stroke-width="3" stroke-linecap="round" stroke-linejoin="round"/>
<path d="M74.5 66.5H40.5V58.5H50.58C50.8191 56.8351 51.6504 55.3123 52.9214 54.2107C54.1925 53.1092 55.8181 52.5028 57.5 52.5028C59.1819 52.5028 60.8075 53.1092 62.0786 54.2107C63.3496 55.3123 64.1809 56.8351 64.42 58.5H74.5V66.5Z" stroke="black" stroke-width="3" stroke-linecap="round" stroke-linejoin="round"/>
<path d="M29.5 97.5H35.5" stroke="black" stroke-width="3" stroke-linecap="round" stroke-linejoin="round"/>
<path d="M79.5 97.5H85.5" stroke="black" stroke-width="3" stroke-linecap="round" stroke-linejoin="round"/>
<path d="M57.5 61.5C58.6046 61.5 59.5 60.6046 59.5 59.5C59.5 58.3954 58.6046 57.5 57.5 57.5C56.3954 57.5 55.5 58.3954 55.5 59.5C55.5 60.6046 56.3954 61.5 57.5 61.5Z" fill="black"/>
</svg>
