<svg width="98" height="20" viewBox="0 0 98 20" fill="none" xmlns="http://www.w3.org/2000/svg">
<path d="M7.7019 3.09357C6.50677 3.09357 6.24119 3.63158 6.24119 4.7076V6.59064H9.29539L9.02981 9.68421H6.24119V18.9649H2.52304V9.68421H0V6.59064H2.52304V4.7076C2.52304 1.61404 3.71816 0 7.17073 0H9.29539V2.82456L7.7019 3.09357ZM9.56098 12.3743C9.56098 8.87719 11.1545 6.32164 14.607 6.32164C16.4661 6.32164 17.5285 7.26316 18.0596 8.47368V6.59064H21.645V18.9649H18.0596V17.0819C17.5285 18.2924 16.3333 19.2339 14.607 19.2339C11.1545 19.2339 9.56098 16.6784 9.56098 13.1813V12.3743ZM13.2791 13.1813C13.2791 15.0643 13.9431 16.2749 15.6694 16.2749C17.3957 16.2749 17.9268 15.1988 17.9268 13.4503V12.2398C17.9268 10.4912 17.1301 9.41521 15.6694 9.41521C14.2087 9.41521 13.2791 10.6257 13.2791 12.5088V13.1813ZM29.3469 6.32164C30.8076 6.32164 32.1355 6.59064 32.9322 7.12866L32.1355 9.81871C31.3445 9.45132 30.4825 9.2675 29.6125 9.2807C27.6206 9.2807 26.6911 10.4912 26.6911 12.5088V13.1813C26.6911 15.1988 27.6206 16.4094 29.6125 16.4094C30.4825 16.4226 31.3445 16.2387 32.1355 15.8713L32.9322 18.5614C32.1355 19.0994 30.8076 19.3684 29.3469 19.3684C24.9648 19.3684 22.9729 16.9474 22.9729 13.1813V12.6433C22.9729 8.74269 24.9648 6.32164 29.3469 6.32164ZM33.3306 13.3158V12.2398C33.3306 8.74269 35.3225 6.45614 39.3062 6.45614C43.29 6.45614 44.7507 8.74269 44.7507 12.2398V14.2573H37.0488C37.1816 16.0058 37.8455 16.6784 39.9702 16.6784C42.0949 16.6784 42.7588 16.4094 43.9539 15.8713L44.6179 18.4269C43.6883 18.9649 41.6965 19.3684 39.8374 19.3684C35.0569 19.2339 33.3306 16.9474 33.3306 13.3158ZM37.0488 11.7018H41.5637V11.4327C41.5637 10.0877 41.0325 9.0117 39.439 9.0117C37.8455 9.0117 37.0488 9.95322 37.0488 11.7018ZM58.4282 13.1813C58.4282 16.6784 56.8347 19.2339 53.3821 19.2339C51.523 19.2339 50.1951 18.2924 49.7967 17.0819V18.9649H46.3442V0.403509L50.0623 0V8.20468C50.5935 7.12866 51.7886 6.18713 53.5149 6.18713C56.9675 6.18713 58.561 8.74269 58.561 12.2398L58.4282 13.1813ZM54.71 12.3743C54.71 10.6257 54.0461 9.2807 52.3198 9.2807C50.5935 9.2807 49.9295 10.3567 49.9295 12.1053V13.4503C49.9295 15.1988 50.7263 16.2749 52.3198 16.2749C53.9133 16.2749 54.71 14.9298 54.71 13.1813V12.3743ZM59.7561 13.0468V12.3743C59.7561 8.87719 61.748 6.18713 65.8645 6.18713C69.981 6.18713 71.9729 8.74269 71.9729 12.3743V13.0468C71.9729 16.5439 69.981 19.2339 65.8645 19.2339C61.748 19.2339 59.7561 16.6784 59.7561 13.0468ZM68.2547 12.1053C68.2547 10.4912 67.5908 9.1462 65.8645 9.1462C64.1382 9.1462 63.4743 10.4912 63.4743 12.1053V13.3158C63.4743 14.9298 64.1382 16.2749 65.8645 16.2749C67.5908 16.2749 68.2547 14.9298 68.2547 13.3158V12.1053ZM73.0352 13.0468V12.3743C73.0352 8.87719 75.0271 6.18713 79.1436 6.18713C83.2602 6.18713 85.252 8.74269 85.252 12.3743V13.0468C85.252 16.5439 83.2602 19.2339 79.1436 19.2339C75.0271 19.2339 73.0352 16.6784 73.0352 13.0468ZM81.5339 12.1053C81.5339 10.4912 80.8699 9.1462 79.1436 9.1462C77.4173 9.1462 76.7534 10.4912 76.7534 12.1053V13.3158C76.7534 14.9298 77.4173 16.2749 79.1436 16.2749C80.8699 16.2749 81.5339 14.9298 81.5339 13.3158V12.1053ZM90.2981 12.5088L93.8835 6.59064H97.8672L94.0163 12.6433L98 18.9649H94.149L90.2981 12.9123V18.9649H86.5799V0.403509L90.2981 0V12.5088Z" fill="#4767AB"/>
</svg>
