<svg width="83" height="27" viewBox="0 0 83 27" fill="none" xmlns="http://www.w3.org/2000/svg">
<path d="M4.5 27C6.98374 27 9 24.9837 9 22.5V18H4.5C2.01626 18 0 20.0163 0 22.5C0 24.9837 2.01626 27 4.5 27Z" fill="#0ACF83"/>
<path d="M0 13.4976C0 11.0152 2.01626 9 4.5 9H9V18H4.5C2.01626 18 0 15.9848 0 13.5024V13.4976Z" fill="#A259FF"/>
<path d="M0 4.49764C0 2.01521 2.01626 0 4.5 0H9V9H4.5C2.01626 9 0 6.98479 0 4.50236V4.49764Z" fill="#F24E1E"/>
<path d="M9 0H13.5C15.9837 0 18 2.01626 18 4.5C18 6.98374 15.9837 9 13.5 9H9V0Z" fill="#FF7262"/>
<path d="M18 13.5C18 15.9837 15.9943 18 13.5235 18C11.0527 18 9 15.9837 9 13.5C9 11.0163 11.0057 9 13.4765 9C15.9473 9 17.953 11.0163 17.953 13.5H18Z" fill="#1ABCFE"/>
<path d="M29.4463 7.3999V22.3849H31.3738V15.2299H36.0088V13.3699H31.3738V9.2749H37.3963V7.3999H29.4463ZM40.8838 10.4449C41.5813 10.4449 42.1438 9.8824 42.1438 9.1849C42.1438 8.4874 41.5738 7.9999 40.8838 7.9999C40.1938 7.9999 39.6238 8.5624 39.6238 9.2599C39.6238 9.5974 39.7588 9.9124 39.9988 10.1599C40.2388 10.4074 40.5538 10.5349 40.8988 10.5349L40.8838 10.4449ZM39.9088 12.3349V22.3849H41.7613V12.3349H39.8488H39.9088ZM48.9988 12.0349C46.4338 12.0349 44.6488 14.2849 44.6488 16.7749C44.6488 19.2649 46.4488 21.4999 48.9988 21.4999C49.5294 21.5092 50.0561 21.408 50.5455 21.2027C51.0348 20.9974 51.4761 20.6925 51.8413 20.3074V21.6424C51.8359 22.4445 51.5248 23.2143 50.9713 23.7949C50.6917 24.0802 50.3579 24.3067 49.9896 24.4613C49.6212 24.6158 49.2257 24.6952 48.8263 24.6949C48.2129 24.6755 47.6186 24.4774 47.1163 24.1249L46.1413 25.7974C46.89 26.2789 47.7548 26.5496 48.6445 26.581C49.5341 26.6123 50.4158 26.4032 51.1966 25.9756C51.9774 25.5479 52.6284 24.9177 53.0811 24.1511C53.5338 23.3846 53.7713 22.5101 53.7688 21.6199V12.3199H51.8413V13.2199C51.4761 12.8348 51.0348 12.5299 50.5455 12.3246C50.0561 12.1193 49.5294 12.0181 48.9988 12.0274V12.0349ZM46.5838 16.7749C46.5399 16.2873 46.6332 15.7971 46.8532 15.3598C47.0732 14.9224 47.4111 14.5553 47.8288 14.2999C48.6838 13.7749 49.7563 13.7749 50.6038 14.2999C51.4513 14.8249 51.9313 15.7849 51.8488 16.7749C51.8927 17.2625 51.7994 17.7527 51.5794 18.19C51.3594 18.6274 51.0215 18.9945 50.6038 19.2499C49.7488 19.7749 48.6763 19.7749 47.8288 19.2499C46.9813 18.7249 46.5013 17.7649 46.5838 16.7749Z" fill="black"/>
<path d="M60.7212 13.9999C60.1668 14.0019 59.6357 14.223 59.2437 14.615C58.8517 15.007 58.6306 15.5381 58.6287 16.0924V22.4524H56.7012V12.4024H58.6287V13.2499C59.2137 12.4699 60.1437 12.0199 61.1187 12.0349C62.3487 12.0049 63.4962 12.6649 64.1037 13.7374C64.8537 12.6874 65.9337 12.0499 67.1037 12.0349C69.3012 12.0349 70.6662 13.8049 70.6737 15.9949V22.3924H68.7462V16.0174C68.8027 15.6203 68.7442 15.2153 68.5778 14.8504C68.4114 14.4854 68.1439 14.1757 67.8071 13.958C67.4702 13.7403 67.078 13.6235 66.6769 13.6217C66.2758 13.6198 65.8826 13.7328 65.5437 13.9474C65.2067 14.1671 64.9399 14.479 64.775 14.846C64.6101 15.2129 64.5541 15.6195 64.6137 16.0174V22.3774H62.7612V16.0249C62.7592 15.4706 62.5381 14.9395 62.1461 14.5475C61.7541 14.1555 61.223 13.9344 60.6687 13.9324L60.7212 13.9999ZM80.9712 13.4749C80.5325 13.0171 80.0047 12.6539 79.4205 12.4075C78.8362 12.1612 78.2077 12.0369 77.5737 12.0424C74.7012 12.0424 72.6987 14.4724 72.6987 17.2924C72.6987 20.1124 74.7237 22.5424 77.5737 22.5424C78.2077 22.5479 78.8362 22.4237 79.4205 22.1773C80.0047 21.931 80.5325 21.5677 80.9712 21.1099V22.2499H82.8987V12.1999H80.9712V13.4749ZM74.5962 17.3749C74.4987 16.1749 75.0837 15.0199 76.1112 14.3899C77.1387 13.7599 78.3612 13.7599 79.4562 14.3899C79.9577 14.7012 80.3641 15.1441 80.6313 15.6705C80.8984 16.1968 81.016 16.7864 80.9712 17.3749C81.0687 18.5749 80.4837 19.7299 79.4562 20.3599C78.4287 20.9899 77.2062 20.9899 76.1112 20.3599C75.6097 20.0486 75.2032 19.6057 74.9361 19.0794C74.6689 18.553 74.5514 17.9635 74.5962 17.3749Z" fill="black"/>
</svg>
