<svg width="92" height="30" viewBox="0 0 92 30" fill="none" xmlns="http://www.w3.org/2000/svg">
<path d="M22.8072 10.4686H11.9841V13.599H19.6606C19.2802 17.9805 15.5345 19.8613 11.9971 19.8613C10.8764 19.8661 9.76605 19.6532 8.73073 19.2351C7.69542 18.8171 6.75593 18.2021 5.9671 17.4263C5.17827 16.6504 4.55592 15.7291 4.13638 14.7163C3.71684 13.7034 3.50851 12.6192 3.52357 11.527C3.52357 6.7881 7.28746 3.13958 12.0074 3.13958C15.6486 3.13958 17.7942 5.402 17.7942 5.402L20.0418 3.132C20.0418 3.132 17.1545 0 11.8899 0C5.18594 0 0 5.51491 0 11.4713C0 17.3081 4.87819 23 12.0593 23C18.376 23 23 18.7819 23 12.5448C23 11.2287 22.8038 10.4686 22.8038 10.4686H22.8072Z" fill="#4885ED"/>
<path d="M31.5072 8.00085C27.134 8.00085 24 11.435 24 15.4384C24 19.5026 27.0386 23 31.5583 23C35.649 23 39 19.86 39 15.5256C39 10.5673 35.1017 8 31.5072 8V8.00085ZM31.5498 10.9468C33.6998 10.9468 35.7375 12.6934 35.7375 15.5068C35.7375 18.2596 33.7083 20.0566 31.5396 20.0566C29.1563 20.0566 27.2838 18.1399 27.2838 15.4846C27.2838 12.8857 29.1393 10.9468 31.5566 10.9468H31.5498Z" fill="#DB3236"/>
<path d="M47.5072 8.00085C43.134 8.00085 40 11.435 40 15.4384C40 19.5026 43.0386 23 47.5583 23C51.649 23 55 19.86 55 15.5256C55 10.5673 51.1017 8 47.5072 8V8.00085ZM47.5498 10.9468C49.6998 10.9468 51.7375 12.6934 51.7375 15.5068C51.7375 18.2596 49.7083 20.0566 47.5396 20.0566C45.1563 20.0566 43.2838 18.1399 43.2838 15.4846C43.2838 12.8857 45.1393 10.9468 47.5566 10.9468H47.5498Z" fill="#F4C20D"/>
<path d="M64.0108 8C60.085 8 57 11.5729 57 15.5836C57 20.1515 60.577 23.1811 63.9426 23.1811C66.0237 23.1811 67.1308 22.3221 67.9383 21.3367V22.8333C67.9383 25.4521 66.4083 27.0205 64.0991 27.0205C61.8681 27.0205 60.7493 25.2963 60.3531 24.3188L57.5461 25.5299C58.5417 27.7187 60.5462 30 64.1224 30C68.0348 30 71 27.4453 71 22.0867V8.45592H67.9499V9.74149C67.0093 8.68604 65.7207 8 64.0125 8H64.0108ZM64.2939 10.976C66.2185 10.976 68.1947 12.6838 68.1947 15.6001C68.1947 18.5648 66.2218 20.1982 64.2514 20.1982C62.1586 20.1982 60.2116 18.4333 60.2116 15.6278C60.2116 12.714 62.2344 10.9751 64.2939 10.9751V10.976Z" fill="#4885ED"/>
<path d="M85.1249 8C81.2521 8 78 11.0234 78 15.4816C78 20.2012 81.6247 23 85.488 23C88.7201 23 90.7122 21.2662 91.8877 19.7118L89.2468 17.9883C88.5616 19.0303 87.4158 20.0509 85.5046 20.0509C83.3574 20.0509 82.37 18.8979 81.7579 17.7791L92 13.6112L91.4776 12.3899C90.4885 9.99852 88.1802 8 85.1258 8H85.1249ZM85.2582 10.8816C86.6539 10.8816 87.6578 11.6093 88.0845 12.4822L81.2442 15.2861C80.9482 13.115 83.0466 10.8816 85.2495 10.8816H85.2582Z" fill="#DB3236"/>
<path d="M73 23H77V1H73V23Z" fill="#3CBA54"/>
</svg>
