<svg width="219" height="23" viewBox="0 0 219 23" fill="none" xmlns="http://www.w3.org/2000/svg">
<path d="M5.25391 0.734375H9.77734C13.0039 0.734375 15.5234 1.47656 17.3359 2.96094C18.6641 4.04688 19.6445 5.13281 20.2773 6.21875H21.3906C22.3438 7.84375 22.8203 9.24609 22.8203 10.4258V10.5898C22.8203 10.6133 22.7656 10.6914 22.6562 10.8242L22.2578 10.7539H21.625V11.1406C21.625 11.25 21.5703 11.3047 21.4609 11.3047H20.5938V11.9375H21.4609C21.5703 11.9531 21.625 12.0078 21.625 12.1016V12.2539C21.625 13.4102 21.1758 14.9219 20.2773 16.7891C20.168 16.8047 20.1133 16.8594 20.1133 16.9531V17.0234H21.625C21.7266 17.0391 21.7773 17.0938 21.7773 17.1875C21.6055 17.2891 21.4492 17.3398 21.3086 17.3398H19.9492L18.7656 18.7812H17.2539C16.457 18.7812 16.0586 18.9102 16.0586 19.168V19.25H18.1211C18.2305 19.2656 18.2852 19.3203 18.2852 19.4141C18.1992 19.4141 17.8828 19.6523 17.3359 20.1289C15.3359 21.5586 13.4023 22.2734 11.5352 22.2734H2.78125V19.4141C2.78125 19.3047 2.73047 19.25 2.62891 19.25H2.46484C1.08984 19.25 0.402344 19.1719 0.402344 19.0156V18.9336C0.417969 18.832 0.472656 18.7812 0.566406 18.7812H2.62891C2.73047 18.7812 2.78125 18.7266 2.78125 18.6172V17.3398C3.13281 17.3398 3.66406 17.3164 4.375 17.2695V17.1055C3.65625 17.0508 3.15234 17.0234 2.86328 17.0234L2.78125 16.8711V12.1836C2.78125 12.1055 2.70312 12.0234 2.54688 11.9375H1.83203C1.73047 11.9375 1.67969 11.8867 1.67969 11.7852V11.4688C1.67969 11.3438 1.89062 11.2617 2.3125 11.2227L2.46484 11.3047L3.02734 10.8242C3.71484 10.8242 4.05859 10.7461 4.05859 10.5898V6.38281C4.05859 6.25781 3.63281 6.14844 2.78125 6.05469V0.96875L2.86328 0.816406C3.92578 0.761719 4.72266 0.734375 5.25391 0.734375ZM8.51172 5.1875V6.05469C8.52734 6.16406 8.57812 6.21875 8.66406 6.21875H9.625C9.72656 6.23438 9.77734 6.28906 9.77734 6.38281V10.5898C9.77734 10.6289 9.69922 10.707 9.54297 10.8242L9.14453 10.7539H8.66406L8.34766 11.3047H7.63281C7.53125 11.3203 7.48047 11.375 7.48047 11.4688V11.9375H8.34766C8.39453 11.9375 8.47656 12.0195 8.59375 12.1836L8.51172 12.582V15.6758C8.51172 15.793 8.53906 15.8984 8.59375 15.9922C8.53906 16.0859 8.51172 16.1914 8.51172 16.3086V16.625L8.59375 17.0234H9.54297C9.66016 17.0234 9.76562 17.0508 9.85938 17.1055C9.95312 17.0508 10.0586 17.0234 10.1758 17.0234L10.2578 17.1875L9.94141 17.3398C9.83203 17.3398 9.77734 17.3164 9.77734 17.2695L9.22656 17.3398H8.59375L8.51172 17.7383V17.9023C8.52734 18.0117 8.57812 18.0664 8.66406 18.0664H10.3398C10.8555 18.0664 11.7031 17.8242 12.8828 17.3398C13.6797 17.293 14.2617 17.2695 14.6289 17.2695L14.7109 17.1055C14.1797 17.0508 13.7812 17.0234 13.5156 17.0234H13.3633V16.8711C14.3398 16.1602 15.0547 15.125 15.5078 13.7656L15.9062 12.1016L15.6602 11.9375H14.9453C14.8438 11.9375 14.793 11.8867 14.793 11.7852V11.4688C14.793 11.3906 14.8711 11.3086 15.0273 11.2227C15.082 11.2227 15.1094 11.25 15.1094 11.3047C15.6016 11.3047 15.918 11.1445 16.0586 10.8242H16.5391L17.0898 10.7539V10.5898C16.8945 9.02734 16.1289 7.59766 14.793 6.30078C13.6289 6.20703 12.9102 6.01953 12.6367 5.73828C11.7852 5.26172 11.0703 5.02344 10.4922 5.02344H8.66406C8.5625 5.03906 8.51172 5.09375 8.51172 5.1875ZM2.39453 6.21875H2.54688C2.65625 6.23438 2.71094 6.28906 2.71094 6.38281V6.53516C2.71094 6.62891 2.57812 6.70703 2.3125 6.76953L2.23047 6.61719V6.38281C2.24609 6.27344 2.30078 6.21875 2.39453 6.21875ZM13.6797 10.8242H14.5469C14.6562 10.8398 14.7109 10.8945 14.7109 10.9883V11.0703C14.7109 11.1719 14.6562 11.2227 14.5469 11.2227H13.832C13.7305 11.2227 13.6797 11.1719 13.6797 11.0703V10.8242ZM0.953125 11.2227H1.11719C1.22656 11.2383 1.28125 11.293 1.28125 11.3867V11.7852C1.28125 11.8867 1.22656 11.9375 1.11719 11.9375H0.800781V11.3867C0.816406 11.2773 0.867188 11.2227 0.953125 11.2227ZM25.668 0.734375H36.9414C37.0117 0.734375 37.0898 0.8125 37.1758 0.96875V3.67578C37.1758 3.74609 37.2539 3.82422 37.4102 3.91016H37.7266C37.8516 3.91016 37.9609 3.88281 38.0547 3.82812C38.3125 3.89844 38.4414 3.97656 38.4414 4.0625V4.22656C38.4414 4.32813 38.3906 4.37891 38.2891 4.37891H37.8906V4.77734C37.8906 4.88672 37.8359 4.94141 37.7266 4.94141H32.2539C31.6992 4.94141 30.8555 4.96875 29.7227 5.02344V5.73828C29.7383 5.83984 29.7891 5.89062 29.875 5.89062H30.5898C30.6992 5.90625 30.7539 5.96094 30.7539 6.05469V9.46484H37.6562C37.7578 9.48047 37.8086 9.53125 37.8086 9.61719V10.8125C37.8086 10.9141 37.5195 10.9922 36.9414 11.0469L36.7773 10.9648L36.3086 11.0469C36.1992 10.9922 36.1172 10.9648 36.0625 10.9648L35.9805 11.3633V12.7109L36.0625 13.5078L35.8281 13.6719H29.0781C29.0781 13.8516 28.8945 13.957 28.5273 13.9883L28.0469 13.9062H27.8945C27.7852 13.9219 27.7305 13.9766 27.7305 14.0703V14.1406H28.2109L29.0078 14.2227V16.8477C29.0078 17.1289 29.1641 17.2852 29.4766 17.3164C29.4766 17.4336 29.5039 17.5391 29.5586 17.6328C29.5039 17.7266 29.4766 17.832 29.4766 17.9492V18.0312H37.0234C37.125 18.0312 37.2031 18.2969 37.2578 18.8281H38.4414C38.5508 18.8438 38.6055 18.8945 38.6055 18.9805C38.6055 19.0898 38.5508 19.1445 38.4414 19.1445H37.5742L37.1758 19.2266V22.2383H24.168C24.1133 22.2383 24.0859 22.2109 24.0859 22.1562L23.9219 22.2383H23.4531C23.375 22.2383 23.293 22.1602 23.207 22.0039V21.8398C23.207 21.7852 23.2344 21.7578 23.2891 21.7578L23.207 21.6055V19.6953L22.8086 19.625H22.1055C21.9961 19.625 21.9414 19.5703 21.9414 19.4609V19.2969C21.957 19.1953 22.0117 19.1445 22.1055 19.1445C22.9883 19.0898 23.6758 19.0625 24.168 19.0625H24.4844V18.9102L23.6875 18.8281H23.3711C23.2617 18.8281 23.207 18.75 23.207 18.5938L23.2891 18.4297C23.2344 18.3359 23.207 18.2305 23.207 18.1133C23.207 18.043 23.3672 17.9648 23.6875 17.8789C23.7422 17.7852 23.7695 17.6758 23.7695 17.5508C23.7695 17.3242 23.582 17.1953 23.207 17.1641V14.457L23.2891 14.3047L23.1367 14.2227H22.1055C21.9961 14.2227 21.9414 14.1719 21.9414 14.0703C21.957 13.9609 22.0117 13.9062 22.1055 13.9062H23.0547C23.1562 13.9062 23.207 13.8516 23.207 13.7422V11.1289C23.207 11.0195 23.2891 10.9648 23.4531 10.9648C23.6172 10.9648 24.1172 10.9414 24.9531 10.8945V6.05469C24.9531 5.89062 24.6641 5.80859 24.0859 5.80859H23.9219V4.54297L24.4844 4.22656V4.0625C24.4844 3.96094 24.4297 3.91016 24.3203 3.91016H23.3711C23.2617 3.91016 23.207 3.85547 23.207 3.74609V0.96875L23.2891 0.816406C24.3516 0.761719 25.1445 0.734375 25.668 0.734375ZM22.6562 10.2617H23.0547C23.1562 10.2773 23.207 10.3281 23.207 10.4141V10.8125C23.207 10.9141 23.1562 10.9648 23.0547 10.9648H22.6562C22.5469 10.9648 22.4922 10.9141 22.4922 10.8125V10.4141C22.5156 10.3125 22.5703 10.2617 22.6562 10.2617ZM25.5156 19.0625H26.2305V18.9102H25.668C25.5664 18.9258 25.5156 18.9766 25.5156 19.0625ZM34.082 19.1445V19.4609C34.0977 19.5703 34.1523 19.625 34.2461 19.625H35.3477C35.3477 19.5625 35.375 19.4805 35.4297 19.3789C35.375 19.2773 35.3477 19.1992 35.3477 19.1445H34.082ZM45.707 0.734375C45.7617 0.734375 45.7891 0.761719 45.7891 0.816406L46.0938 0.734375C48.5781 0.734375 50.6992 1.32813 52.457 2.51562C54.3164 2.51562 55.2461 2.72266 55.2461 3.13672C56.4102 4.07422 57.3125 5.08203 57.9531 6.16016V6.62891L55.082 8.09375C54.5508 8.40625 54.1641 8.5625 53.9219 8.5625H53.1484C51.9844 6.9375 50.9258 6.00781 49.9727 5.77344C49.6602 5.625 49.168 5.44531 48.4961 5.23438C47.582 5.23438 46.5234 5.54297 45.3203 6.16016V6.24219C45.8906 6.24219 46.1758 6.29297 46.1758 6.39453C44.7773 7.65234 44.0781 8.63281 44.0781 9.33594C43.9141 9.53125 43.7617 10.0469 43.6211 10.8828H42.0625C41.9609 10.8984 41.9102 10.9531 41.9102 11.0469C41.9102 11.1172 41.9883 11.1914 42.1445 11.2695H43.457C43.5352 11.2695 43.6641 11.918 43.8438 13.2148C44.1094 14.2617 44.6523 15.1914 45.4727 16.0039L45.3203 16.0742H44.4648V16.2383C45.1523 16.9102 46.2891 17.4258 47.875 17.7852C48.4609 17.7852 49.3164 17.5508 50.4414 17.082C51.4805 17.082 52.2812 16.7461 52.8438 16.0742H52.9141V15.9219H52.1406V15.8516C52.3359 15.5 52.6719 15.0352 53.1484 14.457H54.0742C54.1836 14.457 55.0898 14.9219 56.793 15.8516C57.8789 15.8516 58.6289 16.082 59.043 16.543V16.625C58.832 16.8516 58.7266 16.9805 58.7266 17.0117L58.1875 16.9297C57.8516 16.9297 57.3867 17.4453 56.793 18.4766C56.5664 18.5859 56.1523 18.6406 55.5508 18.6406H55.3984C55.3203 18.6406 55.2422 18.7148 55.1641 18.8633H56.1719V19.0977C54.5234 20.6289 53.1289 21.4844 51.9883 21.6641C51.168 22.0703 50.2383 22.2734 49.1992 22.2734H47.5703C44.75 22.2734 42.2422 21.2695 40.0469 19.2617C39.8281 18.9961 39.4414 18.8633 38.8867 18.8633C38.707 18.918 38.6055 18.9453 38.582 18.9453C38.3711 18.8672 38.2656 18.7891 38.2656 18.7109C38.2812 18.6094 38.3359 18.5586 38.4297 18.5586C38.4844 18.5586 38.5586 18.5859 38.6523 18.6406L39.1211 18.5586H39.2734V18.4766C38.3438 17.2031 37.8789 16.4297 37.8789 16.1562V16.0742H38.6523L39.0391 16.0039C38.4375 14.6289 38.1016 13.2344 38.0312 11.8203H37.0352V11.5859H37.8789C37.9805 11.5859 38.0312 11.5352 38.0312 11.4336C38.0312 11.3242 37.9805 11.2695 37.8789 11.2695H36.4844C36.3828 11.2695 36.332 11.2188 36.332 11.1172V10.8828C36.5664 10.8828 36.7227 10.8594 36.8008 10.8125L36.9531 10.8828C37.7266 10.8828 38.1133 10.7812 38.1133 10.5781C38.2148 9.11719 38.6289 7.74609 39.3555 6.46484V6.39453C39.3555 6.29297 39.3047 6.24219 39.2031 6.24219H38.4297L38.2656 6.16016C39.1953 4.51953 40.2539 3.38281 41.4414 2.75C41.4414 2.64844 41.3906 2.59766 41.2891 2.59766H39.7422V2.51562C40.3438 1.97656 41.4297 1.48438 43 1.03906C43.8359 0.890625 44.5859 0.816406 45.25 0.816406H45.4023C45.5195 0.816406 45.6211 0.789063 45.707 0.734375ZM40.668 11.5859V11.8203H40.9023C41.0039 11.8203 41.0547 11.7656 41.0547 11.6562L40.9023 11.5859H40.668ZM48.8828 15.9219H49.5859C49.6875 15.9375 49.7383 15.9883 49.7383 16.0742C49.0898 16.6445 48.625 16.9297 48.3438 16.9297H47.7227V16.7773C47.918 16.7773 48.3047 16.4922 48.8828 15.9219ZM61.1992 0.734375H72.4727C72.543 0.734375 72.6211 0.8125 72.707 0.96875V3.67578C72.707 3.74609 72.7852 3.82422 72.9414 3.91016H73.2578C73.3828 3.91016 73.4922 3.88281 73.5859 3.82812C73.8438 3.89844 73.9727 3.97656 73.9727 4.0625V4.22656C73.9727 4.32813 73.9219 4.37891 73.8203 4.37891H73.4219V4.77734C73.4219 4.88672 73.3672 4.94141 73.2578 4.94141H67.7852C67.2305 4.94141 66.3867 4.96875 65.2539 5.02344V5.73828C65.2695 5.83984 65.3203 5.89062 65.4062 5.89062H66.1211C66.2305 5.90625 66.2852 5.96094 66.2852 6.05469V9.46484H73.1875C73.2891 9.48047 73.3398 9.53125 73.3398 9.61719V10.8125C73.3398 10.9141 73.0508 10.9922 72.4727 11.0469L72.3086 10.9648L71.8398 11.0469C71.7305 10.9922 71.6484 10.9648 71.5938 10.9648L71.5117 11.3633V12.7109L71.5938 13.5078L71.3594 13.6719H64.6094C64.6094 13.8516 64.4258 13.957 64.0586 13.9883L63.5781 13.9062H63.4258C63.3164 13.9219 63.2617 13.9766 63.2617 14.0703V14.1406H63.7422L64.5391 14.2227V16.8477C64.5391 17.1289 64.6953 17.2852 65.0078 17.3164C65.0078 17.4336 65.0352 17.5391 65.0898 17.6328C65.0352 17.7266 65.0078 17.832 65.0078 17.9492V18.0312H72.5547C72.6562 18.0312 72.7344 18.2969 72.7891 18.8281H73.9727C74.082 18.8438 74.1367 18.8945 74.1367 18.9805C74.1367 19.0898 74.082 19.1445 73.9727 19.1445H73.1055L72.707 19.2266V22.2383H59.6992C59.6445 22.2383 59.6172 22.2109 59.6172 22.1562L59.4531 22.2383H58.9844C58.9062 22.2383 58.8242 22.1602 58.7383 22.0039V21.8398C58.7383 21.7852 58.7656 21.7578 58.8203 21.7578L58.7383 21.6055V19.6953L58.3398 19.625H57.6367C57.5273 19.625 57.4727 19.5703 57.4727 19.4609V19.2969C57.4883 19.1953 57.543 19.1445 57.6367 19.1445C58.5195 19.0898 59.207 19.0625 59.6992 19.0625H60.0156V18.9102L59.2188 18.8281H58.9023C58.793 18.8281 58.7383 18.75 58.7383 18.5938L58.8203 18.4297C58.7656 18.3359 58.7383 18.2305 58.7383 18.1133C58.7383 18.043 58.8984 17.9648 59.2188 17.8789C59.2734 17.7852 59.3008 17.6758 59.3008 17.5508C59.3008 17.3242 59.1133 17.1953 58.7383 17.1641V14.457L58.8203 14.3047L58.668 14.2227H57.6367C57.5273 14.2227 57.4727 14.1719 57.4727 14.0703C57.4883 13.9609 57.543 13.9062 57.6367 13.9062H58.5859C58.6875 13.9062 58.7383 13.8516 58.7383 13.7422V11.1289C58.7383 11.0195 58.8203 10.9648 58.9844 10.9648C59.1484 10.9648 59.6484 10.9414 60.4844 10.8945V6.05469C60.4844 5.89062 60.1953 5.80859 59.6172 5.80859H59.4531V4.54297L60.0156 4.22656V4.0625C60.0156 3.96094 59.9609 3.91016 59.8516 3.91016H58.9023C58.793 3.91016 58.7383 3.85547 58.7383 3.74609V0.96875L58.8203 0.816406C59.8828 0.761719 60.6758 0.734375 61.1992 0.734375ZM58.1875 10.2617H58.5859C58.6875 10.2773 58.7383 10.3281 58.7383 10.4141V10.8125C58.7383 10.9141 58.6875 10.9648 58.5859 10.9648H58.1875C58.0781 10.9648 58.0234 10.9141 58.0234 10.8125V10.4141C58.0469 10.3125 58.1016 10.2617 58.1875 10.2617ZM61.0469 19.0625H61.7617V18.9102H61.1992C61.0977 18.9258 61.0469 18.9766 61.0469 19.0625ZM69.6133 19.1445V19.4609C69.6289 19.5703 69.6836 19.625 69.7773 19.625H70.8789C70.8789 19.5625 70.9062 19.4805 70.9609 19.3789C70.9062 19.2773 70.8789 19.1992 70.8789 19.1445H69.6133ZM75.8125 0.769531C76.3203 0.769531 77.4805 0.796875 79.293 0.851562C81.1445 3.5625 82.1758 4.96094 82.3867 5.04688C82.5898 5.04688 82.8789 5.23047 83.2539 5.59766H85.7969C85.8984 5.61328 85.9492 5.66797 85.9492 5.76172C85.9492 5.86328 85.8984 5.91406 85.7969 5.91406H85.5508C85.4336 5.91406 85.3281 5.89062 85.2344 5.84375C85.1484 5.89062 85.043 5.91406 84.918 5.91406C84.8008 5.91406 84.6953 5.89062 84.6016 5.84375L84.1328 5.91406H83.6523L83.5 5.84375L83.418 5.99609C84.043 6.83203 85.5742 9.02344 88.0117 12.5703L87.6133 12.7344C88.3398 13.8281 88.8164 14.4609 89.043 14.6328L89.125 14.2344V13.8359C89.125 13.5234 88.9648 13.1562 88.6445 12.7344C88.9102 12.6797 89.043 12.625 89.043 12.5703C88.7773 12.1641 88.6445 11.9023 88.6445 11.7852C88.7461 11.7305 88.8242 11.7031 88.8789 11.7031C88.7227 11.5078 88.6445 11.3242 88.6445 11.1523V6.94531C88.3789 6.94531 88.2461 6.92188 88.2461 6.875L88.0938 6.94531C87.9844 6.94531 87.9297 6.89453 87.9297 6.79297V6.71094C87.9453 6.60156 88 6.54688 88.0938 6.54688H88.6445V5.12891C88.3242 5.12891 88.1641 5.07422 88.1641 4.96484V1.00391L88.2461 0.851562C89.3008 0.796875 90.0938 0.769531 90.625 0.769531H93.4727C93.5273 0.769531 93.5547 0.796875 93.5547 0.851562L93.7188 0.769531C93.8203 0.785156 93.8711 0.839844 93.8711 0.933594V5.04688C94.2148 5.04688 94.4023 5.125 94.4336 5.28125V6.39453C94.4336 6.47266 94.3516 6.55078 94.1875 6.62891H93.7188V6.875H94.1875C94.2656 6.875 94.3477 6.95312 94.4336 7.10938V12.5L93.8711 12.8164V15.8984C93.8711 15.9688 93.7148 16.0742 93.4023 16.2148L93.4727 16.7773V18.6758C93.7383 18.6758 93.8711 18.7266 93.8711 18.8281V21.7578L93.9531 22.1562L93.7891 22.2383H90.2266C89.7031 22.2383 88.9102 22.2109 87.8477 22.1562C86.3945 19.9141 85.5508 18.7539 85.3164 18.6758C85.0742 18.6758 84.8125 18.3828 84.5312 17.7969C83.7344 16.7734 83.3359 16.1953 83.3359 16.0625H83.5703V15.8984L81.3555 12.7344C81.6211 12.6797 81.7539 12.625 81.7539 12.5703L80.6406 10.9883V9.875C80.6406 9.57812 80.3516 9.05078 79.7734 8.29297H79.6914V12.5L79.2227 12.8164V12.9688H80.0898C80.1914 12.9844 80.2422 13.0391 80.2422 13.1328V13.3672C80.2422 13.4453 80.1641 13.5234 80.0078 13.6016H79.2227L79.1406 14.5508V16.9297L79.2227 17.3281C79.0977 17.4297 78.9375 17.4805 78.7422 17.4805V17.9609L79.1406 18.2773V20.9727L79.2227 21.4414C79.168 21.5352 79.1406 21.6406 79.1406 21.7578L79.2227 22.1562L79.0586 22.2383H75.5781C75.125 22.2383 74.4102 22.2109 73.4336 22.1562L73.3516 22.0039V21.9219C73.3516 21.8672 73.3789 21.8398 73.4336 21.8398L73.3516 21.6875V18.2773L72.9648 17.9609V17.6445L73.3516 17.3281V13.7656C73.3516 13.6875 73.4336 13.6055 73.5977 13.5195H74.3008C74.4102 13.5195 74.4648 13.4688 74.4648 13.3672V13.1328C74.4648 13.0234 74.4102 12.9688 74.3008 12.9688H73.5156C73.4062 12.9688 73.3516 12.918 73.3516 12.8164C73.3672 12.707 73.4219 12.6523 73.5156 12.6523H73.9141V12.5C73.9141 12.3203 73.9375 12.1875 73.9844 12.1016L73.9141 11.7031L73.9844 11.3867C73.9844 11.332 73.9609 11.3047 73.9141 11.3047L73.9844 10.9062V10.7539C73.9844 10.543 73.9609 10.4375 73.9141 10.4375L73.9844 9.875V9.55859C73.9844 8.87109 73.9609 7.97656 73.9141 6.875L73.9844 6.71094L73.9141 6.54688C73.9609 6.125 74.0391 5.91406 74.1484 5.91406H74.8633C75.2305 5.91406 75.8086 5.89062 76.5977 5.84375V5.67969H76.5273C76.1367 5.67969 75.8438 5.65234 75.6484 5.59766C75.3047 5.65234 74.9609 5.67969 74.6172 5.67969C74.0938 5.67969 73.832 5.49609 73.832 5.12891C73.5117 5.12891 73.3516 5.05078 73.3516 4.89453V1.00391L73.4336 0.851562C74.5664 0.796875 75.3594 0.769531 75.8125 0.769531ZM72.9648 6.54688H73.1172C73.2266 6.57031 73.2812 6.625 73.2812 6.71094C73.2812 6.82812 73.1484 6.90625 72.8828 6.94531L72.8008 6.79297V6.71094C72.8164 6.60156 72.8711 6.54688 72.9648 6.54688ZM87.2148 6.54688H87.2969C87.4062 6.57031 87.4609 6.625 87.4609 6.71094V6.79297C87.4609 6.89453 87.4062 6.94531 87.2969 6.94531C87.2188 6.94531 87.1406 6.86719 87.0625 6.71094C87.0781 6.60156 87.1289 6.54688 87.2148 6.54688ZM89.1953 12.1016C89.2109 12.2031 89.2656 12.2539 89.3594 12.2539V12.1016H89.1953ZM89.5117 12.3359V12.5H89.5938V12.3359H89.5117ZM96.7539 0.757812H109.938C110.055 0.757812 110.16 0.785156 110.254 0.839844C110.348 0.785156 110.453 0.757812 110.57 0.757812C110.68 0.890625 110.734 0.996094 110.734 1.07422L110.652 1.23828C110.707 1.51172 110.812 1.72266 110.969 1.87109V4.87109L110.887 5.02344L110.488 4.95312H108.836L108.355 5.02344C108.27 4.97656 108.141 4.95312 107.969 4.95312L107.418 5.02344C107.324 4.97656 107.219 4.95312 107.102 4.95312L106.938 5.02344C106.883 5.02344 106.855 5 106.855 4.95312L106.469 5.02344H105.672V7.78906C105.672 7.89844 105.461 7.98047 105.039 8.03516C105.039 8.23828 104.988 8.33984 104.887 8.33984H104.172C104.07 8.36328 104.02 8.41797 104.02 8.50391C104.035 8.60547 104.086 8.65625 104.172 8.65625H104.969L105.121 8.73828L105.039 9.13672V9.85156L105.52 10.168C105.52 10.2695 105.203 10.3477 104.57 10.4023V15.0547C104.57 15.2031 104.305 15.3086 103.773 15.3711V15.4531H104.969C105.281 15.5938 105.438 15.6992 105.438 15.7695V22.0156C105.438 22.1172 105.387 22.168 105.285 22.168H102.121C101.59 22.168 100.801 22.1406 99.7539 22.0859C99.6992 21.1172 99.6719 20.4062 99.6719 19.9531V15.6875C99.1953 15.5859 98.957 15.4805 98.957 15.3711L98.8047 15.4531H98.0898V15.3711C98.1055 15.2695 98.1602 15.2188 98.2539 15.2188L98.6406 15.3008C98.7422 15.2461 98.8242 15.2188 98.8867 15.2188V10.4727C98.9023 10.3711 98.9531 10.3203 99.0391 10.3203H99.7539V10.0039C99.4883 10.0039 99.3555 9.95312 99.3555 9.85156V8.82031C99.3555 8.71094 99.3008 8.65625 99.1914 8.65625H98.4883C98.3789 8.65625 98.3242 8.60547 98.3242 8.50391C98.3398 8.39453 98.3945 8.33984 98.4883 8.33984H99.1914L99.5078 7.95312H99.9062L99.9883 7.23828C99.9883 7.13672 99.9609 7.08594 99.9062 7.08594L99.9883 6.6875V5.42188C99.9883 5.19531 99.8828 5.03906 99.6719 4.95312C99.6172 4.95312 99.5898 4.97656 99.5898 5.02344L99.1914 4.95312H94.6211C94.5117 4.95312 94.457 4.89844 94.457 4.78906V1.78906C94.2461 1.78906 94.1406 1.73828 94.1406 1.63672V1.55469C94.1406 1.4375 94.168 1.33203 94.2227 1.23828C94.168 1.14453 94.1406 1.03906 94.1406 0.921875C94.1953 0.921875 94.2227 0.894531 94.2227 0.839844C95.3555 0.785156 96.1992 0.757812 96.7539 0.757812ZM97.457 8.33984H97.6211C97.7227 8.36328 97.7734 8.41797 97.7734 8.50391C97.7734 8.60547 97.7227 8.65625 97.6211 8.65625H97.457C97.3555 8.65625 97.3047 8.60547 97.3047 8.50391C97.3203 8.39453 97.3711 8.33984 97.457 8.33984ZM99.6719 14.5859V14.7383H99.7539V14.5859H99.6719ZM111.531 0.734375C111.633 0.734375 111.684 0.761719 111.684 0.816406C112.48 0.761719 113.066 0.734375 113.441 0.734375H118.996C121.012 0.734375 122.363 0.917969 123.051 1.28516C123.527 1.42578 123.82 1.58594 123.93 1.76562C123.875 1.85938 123.848 1.96484 123.848 2.08203C124.676 2.48047 125.391 3.35547 125.992 4.70703C126.367 5.83203 126.555 6.67969 126.555 7.25C126.555 7.44531 126.477 8.08203 126.32 9.16016C126.633 9.16016 126.789 9.21484 126.789 9.32422C126.188 10.9727 125.234 12.1914 123.93 12.9805L122.734 13.4492V13.5312C122.859 13.6484 123.152 14.0742 123.613 14.8086C123.441 14.9102 123.309 14.9609 123.215 14.9609L123.297 15.125V15.207C122.336 15.2539 121.699 15.2773 121.387 15.2773V15.3594C121.402 15.4688 121.457 15.5234 121.551 15.5234H123.531L124.246 16.3906C124.77 16.3906 125.113 16.6562 125.277 17.1875V17.2695C125.012 17.2695 124.879 17.3242 124.879 17.4336C126.527 19.8008 127.352 21.0195 127.352 21.0898C127.141 21.1289 127.035 21.1797 127.035 21.2422C127.402 21.7969 127.586 22.1172 127.586 22.2031L127.434 22.2734H123.449C123.004 22.2734 122.289 22.25 121.305 22.2031C120.883 21.6016 120.672 21.2812 120.672 21.2422C120.758 21.1875 120.891 21.1602 121.07 21.1602V21.0898C119.531 18.7539 118.762 17.4805 118.762 17.2695H119.078V17.1055C118.914 16.582 118.598 16.3203 118.129 16.3203C117.715 15.7891 117.395 15.5234 117.168 15.5234H115.738V15.9219C115.738 15.9688 115.715 15.9922 115.668 15.9922L115.738 16.1562V19.8125H116.617C116.727 19.8281 116.781 19.8828 116.781 19.9766C116.781 20.0781 116.727 20.1289 116.617 20.1289H115.738C115.738 20.3945 115.715 20.5273 115.668 20.5273L115.738 20.6914V21.6406C115.738 21.7578 115.715 21.8633 115.668 21.957C115.715 22.0586 115.738 22.1406 115.738 22.2031L115.586 22.2734H112.328C111.797 22.2734 111 22.25 109.938 22.2031V20.293C109.953 20.1836 110.008 20.1289 110.102 20.1289H110.969V19.8945H110.102C109.992 19.8945 109.938 19.8398 109.938 19.7305V15.6055L109.539 15.5234H107.957C107.848 15.5234 107.793 15.4688 107.793 15.3594L107.957 15.2773C109.277 15.2539 109.938 15.2031 109.938 15.125C109.938 14.9609 109.992 14.8789 110.102 14.8789C110.203 14.9336 110.281 14.9609 110.336 14.9609L110.418 14.8086V9.39453C110.434 9.29297 110.484 9.24219 110.57 9.24219H110.969L111.051 8.76172C110.949 8.70703 110.871 8.67969 110.816 8.67969C110.348 8.73438 110.082 8.76172 110.02 8.76172C110.02 8.33984 109.809 8.12891 109.387 8.12891V7.73047L109.938 7.41406V2.08203L110.418 1.76562V0.96875C110.434 0.867187 110.484 0.816406 110.57 0.816406H111.133C111.312 0.816406 111.445 0.789063 111.531 0.734375ZM115.738 4.95312C115.738 5 115.715 5.02344 115.668 5.02344C115.715 5.55469 115.738 5.95312 115.738 6.21875V6.69922C115.738 6.75391 115.715 6.78125 115.668 6.78125L115.738 6.93359V7.01562C115.738 7.49219 115.527 7.73047 115.105 7.73047V8.21094C115.527 8.24219 115.738 8.32031 115.738 8.44531H115.668C115.715 8.54688 115.738 8.625 115.738 8.67969H117.648V8.84375H116.934L116.617 9.24219H116.219V10.0391H118.68C119.75 10.0391 120.469 9.77344 120.836 9.24219C121.359 9.24219 121.621 9.05469 121.621 8.67969H120.906L120.754 8.60938C120.855 8.24219 120.906 7.92188 120.906 7.64844V7.01562C120.906 6.46094 120.43 5.85156 119.477 5.1875C119.359 5.07813 118.832 5 117.895 4.95312L117.73 5.02344L117.566 4.95312C117.52 4.95312 117.496 4.97656 117.496 5.02344C117.309 4.97656 117.199 4.95312 117.168 4.95312C116.707 5 116.445 5.02344 116.383 5.02344C116.086 4.97656 115.871 4.95312 115.738 4.95312ZM111.215 8.76172V8.84375H111.367V8.76172H111.215ZM111.613 8.76172V8.84375H111.766V8.76172H111.613ZM126.637 8.67969H126.871V8.84375H126.637V8.67969ZM127.188 8.67969H127.434V8.84375H127.188V8.67969ZM127.586 8.67969H128.301V8.84375H127.586V8.67969ZM115.984 14.9609L115.82 14.8789C115.82 14.9883 115.77 15.043 115.668 15.043C115.715 15.1445 115.738 15.2227 115.738 15.2773C116.27 15.2305 116.668 15.207 116.934 15.207H117.016L117.168 15.2773L117.496 14.7266C117.285 14.25 117.152 14.0117 117.098 14.0117H116.383C116.273 14.0117 116.191 14.3281 116.137 14.9609H115.984ZM113.594 15.2773V15.3594C113.609 15.4688 113.664 15.5234 113.758 15.5234H115.188C115.289 15.5234 115.34 15.4688 115.34 15.3594V15.2773H113.594ZM119.957 21.2422H120.109C120.109 21.3281 120.164 21.4336 120.273 21.5586V21.7227C120.203 21.7148 120.098 21.582 119.957 21.3242V21.2422ZM120.508 22.0391H120.59V22.2031H120.508V22.0391ZM133.727 0.746094H138.402C138.496 0.761719 138.922 1.87109 139.68 4.07422L139.914 4.22656H140.711C140.852 4.33594 141.484 6.03125 142.609 9.3125L143.172 10.8945L143.008 10.9766H141.18V11.0586C141.18 11.3398 141.34 11.4961 141.66 11.5273L142.141 11.457H142.211C142.438 11.5742 143.18 13.582 144.438 17.4805L144.273 17.5625C144.094 17.5078 143.988 17.4805 143.957 17.4805C143.91 17.4805 143.887 17.5078 143.887 17.5625L143.324 17.4805H142.926C142.824 17.4961 142.773 17.5508 142.773 17.6445C143.055 18.4883 143.238 18.9102 143.324 18.9102H144.918C145.02 18.9258 145.07 18.9805 145.07 19.0742V19.1445C145.07 19.2539 145.02 19.3086 144.918 19.3086H143.172C143.047 19.3086 142.941 19.2812 142.855 19.2266C142.762 19.2812 142.652 19.3086 142.527 19.3086H140.863L140.312 19.2266L140.23 19.3906C140.246 19.4922 140.301 19.543 140.395 19.543H145.152C145.309 19.543 145.652 20.418 146.184 22.168V22.25H140.23C140.145 22.25 139.828 21.3477 139.281 19.543H135.074C134.957 19.543 134.852 19.5195 134.758 19.4727C134.664 19.5195 134.559 19.543 134.441 19.543C134.332 19.543 134.277 19.4922 134.277 19.3906C134.332 19.3906 134.359 19.3633 134.359 19.3086C135.336 19.2539 136.051 19.2266 136.504 19.2266H139.047C139.148 19.2266 139.199 19.1758 139.199 19.0742L138.965 18.9102H137.371C137.309 18.9102 137.152 18.6719 136.902 18.1953H136.27V18.2773C136.27 18.3242 136.293 18.5352 136.34 18.9102H135.625C135.57 18.9102 135.387 18.6719 135.074 18.1953H130.469C130.164 18.1953 129.98 18.4062 129.918 18.8281L130.07 18.9102H131.418C131.527 18.9258 131.582 18.9805 131.582 19.0742V19.1445L130.551 22.25H124.516V22.168L125.629 18.9922L123.25 18.9102C123.141 18.9102 123.086 18.8594 123.086 18.7578C123.352 17.9062 123.539 17.4805 123.648 17.4805H125.793C126.176 17.4805 126.438 17.0312 126.578 16.1328C126.672 16.125 126.938 15.4648 127.375 14.1523L128.254 11.6094V11.5273H127.457C127.348 11.0352 127.328 10.8633 127.398 11.0117C127.328 10.9336 128.035 10.8945 129.52 10.8945C129.598 10.8789 130.02 9.79688 130.785 7.64844L131.898 4.39062V4.30859H131.5V4.22656C131.898 2.875 132.324 1.73828 132.777 0.816406L133.727 0.746094ZM136.27 7.64844C135.699 9.86719 135.301 10.9766 135.074 10.9766H133.246C133.145 10.9766 133.066 11.1367 133.012 11.457H133.492C133.805 11.4883 133.961 11.5664 133.961 11.6914C133.43 13.3242 133.164 14.1719 133.164 14.2344L133.562 14.3047L134.125 14.2344C134.227 14.2812 134.305 14.3047 134.359 14.3047L134.84 14.2344C134.887 14.2344 134.91 14.2578 134.91 14.3047L135.309 14.2344H136.656C136.711 14.2344 136.738 14.2578 136.738 14.3047C137.27 14.2578 137.535 14.1797 137.535 14.0703V13.9883C137.34 13.6367 137.102 12.9492 136.82 11.9258C136.82 11.6523 136.582 11.4961 136.105 11.457C136.105 11.3242 136.051 11.1914 135.941 11.0586C135.965 10.9492 136.02 10.8945 136.105 10.8945H137.453C137.188 9.92578 136.844 8.84375 136.422 7.64844H136.27ZM143.898 0.734375H149.395C149.496 0.734375 149.574 1.05469 149.629 1.69531C149.895 1.69531 150.027 1.74609 150.027 1.84766V3.52344L149.395 4.00391H148.68C148.57 4.01953 148.516 4.07031 148.516 4.15625V4.32031H149.395C149.496 4.33594 149.547 4.38672 149.547 4.47266V12.7578L149.477 12.9102C149.844 12.9883 150.027 13.0703 150.027 13.1562V17.9258C150.043 18.0352 150.098 18.0898 150.191 18.0898C150.293 18.0898 150.344 18.0625 150.344 18.0078L151.141 18.0898H157.117L157.27 18.1719L157.199 18.5703V20.9609C157.199 21.0625 157.145 21.1133 157.035 21.1133L156.555 21.0312C156.469 21.0859 156.336 21.1133 156.156 21.1133V21.2773C156.195 21.2773 156.355 21.3008 156.637 21.3477L157.117 21.2773L157.199 21.4297V22.1445C157.199 22.2539 157.145 22.3086 157.035 22.3086H146.441C145.996 22.3086 145.281 22.2812 144.297 22.2266V21.5117C144.297 21.4336 144.219 21.3555 144.062 21.2773H143.348V21.1133H144.062C144.133 21.1133 144.211 21.0352 144.297 20.8789V13.2383C143.93 13.0352 143.746 12.9023 143.746 12.8398V4.47266C143.746 4.37109 143.426 4.29297 142.785 4.23828V4.15625C143.277 4.14063 143.703 3.98047 144.062 3.67578C144.219 3.67578 144.297 3.625 144.297 3.52344V2.08203C144.297 1.76953 144.113 1.61328 143.746 1.61328V0.898438C143.762 0.789063 143.812 0.734375 143.898 0.734375ZM158.664 0.769531H164.137C164.246 0.769531 164.328 1.05859 164.383 1.63672H165.25C165.359 1.66016 165.414 1.71484 165.414 1.80078L165.168 1.96484C164.988 1.91016 164.883 1.88281 164.852 1.88281C164.758 1.9375 164.652 1.96484 164.535 1.96484V1.88281C164.434 1.9375 164.355 1.96484 164.301 1.96484V11.3281C164.301 11.4531 164.512 11.5312 164.934 11.5625C165.027 11.5078 165.133 11.4805 165.25 11.4805C165.25 11.5039 165.305 11.582 165.414 11.7148V11.9609C165.414 12.0312 165.332 12.1094 165.168 12.1953H164.699C164.535 12.1953 164.453 12.168 164.453 12.1133L164.066 12.1953H163.27C163.16 12.2109 163.105 12.2656 163.105 12.3594V12.6758C163.121 12.7773 163.176 12.8281 163.27 12.8281H164.934V18.3828C164.934 18.5 164.961 18.6055 165.016 18.6992C164.93 18.9648 164.77 19.0977 164.535 19.0977C164.535 19.043 164.508 19.0156 164.453 19.0156L164.383 19.1797V21.4766C164.398 21.5859 164.449 21.6406 164.535 21.6406C164.629 21.5859 164.734 21.5586 164.852 21.5586C164.961 21.7539 165.016 21.9648 165.016 22.1914L164.852 22.2734H161.359C160.914 22.2734 160.203 22.2461 159.227 22.1914V21.7227L158.664 21.4062C158.664 21.3516 158.637 21.3242 158.582 21.3242L158.664 20.7617V20.293C158.664 20.168 158.637 20.0625 158.582 19.9766C158.637 19.8828 158.664 19.7773 158.664 19.6602V19.2617C158.664 19.1602 158.426 19.0273 157.949 18.8633C157.895 18.7617 157.867 18.6836 157.867 18.6289C157.953 18.4102 158.035 18.3008 158.113 18.3008H158.43C158.523 18.3008 158.602 18.5391 158.664 19.0156H159.062C159.172 19.0156 159.227 18.9648 159.227 18.8633V12.9922C159.227 12.8828 159.172 12.8281 159.062 12.8281C158.133 12.7734 157.578 12.7461 157.398 12.7461L157.316 12.5938V12.3594C157.316 12.2812 157.395 12.1992 157.551 12.1133C157.605 12.1133 157.633 12.1406 157.633 12.1953L157.797 12.1133H159.461C159.562 12.1133 159.613 12.0625 159.613 11.9609V11.7148L159.461 11.4805L158.898 11.5625H158.746C158.668 11.5625 158.59 11.4844 158.512 11.3281V2.11719L158.582 1.96484C158.504 1.91016 158.348 1.88281 158.113 1.88281V1.71875H158.512V0.933594C158.527 0.824219 158.578 0.769531 158.664 0.769531ZM159.062 1.80078C159.078 1.91016 159.133 1.96484 159.227 1.96484H159.379C159.488 1.96484 159.543 1.91016 159.543 1.80078C159.543 1.69141 159.488 1.63672 159.379 1.63672H159.227C159.117 1.66016 159.062 1.71484 159.062 1.80078ZM167.711 0.734375H184.059V0.96875H183.191C183.004 1.05469 182.5 1.92969 181.68 3.59375C182.055 3.59375 182.242 3.64453 182.242 3.74609C180.953 6.34766 180.078 7.96094 179.617 8.58594C179.102 8.58594 178.836 8.61328 178.82 8.66797C178.734 8.61328 178.629 8.58594 178.504 8.58594H178.352C178.352 8.61719 178.402 8.69922 178.504 8.83203V8.91406L178.434 9.06641L178.984 9.14844C179.141 9.14844 179.219 9.12109 179.219 9.06641L179.617 9.14844H180.812C180.914 9.16406 180.965 9.21484 180.965 9.30078L180.812 9.38281H180.016C179.828 9.38281 179.59 9.41016 179.301 9.46484C179.23 9.41016 179.047 9.38281 178.75 9.38281C178.375 9.85938 177.527 11.4219 176.207 14.0703L176.359 14.1523H177.156C177.266 14.168 177.32 14.2188 177.32 14.3047C177.289 14.4609 177.078 14.5391 176.688 14.5391H176.043L175.574 15.0195H174.543C174.402 15.2305 174.082 15.3359 173.582 15.3359L174.062 15.6523C173.445 16.8398 173.074 17.6094 172.949 17.9609H173.746L174.227 18.0312C174.273 18.0312 174.297 18.0078 174.297 17.9609L174.859 18.0312C175.172 18.0312 175.328 18.0078 175.328 17.9609L176.125 18.0312H180.016C180.383 18.0312 180.965 18.0078 181.762 17.9609C181.91 18.3281 182.016 18.5117 182.078 18.5117H183.027C183.137 18.5273 183.191 18.582 183.191 18.6758V21.207L183.109 22.1562C182.586 22.2109 176.926 22.2109 166.129 22.1562H165.895C165.785 22.1562 165.73 22.1055 165.73 22.0039C166.605 20.4414 167.188 19.3047 167.477 18.5938V18.5117H167.395L166.68 18.4297C166.578 18.4844 166.5 18.5117 166.445 18.5117L166.363 18.3477L167.793 15.7344V15.5H167.395V15.3359H167.875L168.344 14.9375H169.387C169.418 14.9375 169.574 14.7812 169.855 14.4688H170.887C170.996 14.4688 171.051 14.4141 171.051 14.3047C171.051 14.2031 170.996 14.1523 170.887 14.1523H170.09L169.938 14.0703L172.398 9.46484C173.273 9.41016 173.934 9.38281 174.379 9.38281H174.543C174.645 9.38281 174.695 9.33203 174.695 9.23047V9.14844H174.613C174.09 9.14844 173.297 9.12109 172.234 9.06641V8.98438C172.234 8.67188 172.66 8.51562 173.512 8.51562L175.328 5.17578V4.94141H168.824C168.707 4.94141 168.602 4.91406 168.508 4.85938C168.453 4.85938 168.426 4.88672 168.426 4.94141L167.875 4.85938H167.312C167.211 4.85938 167.16 4.80859 167.16 4.70703V3.74609L167.242 3.59375C166.766 3.59375 166.527 3.48828 166.527 3.27734L166.598 2.79688L166.527 2.31641L166.598 1.84766L166.527 1.05078L166.68 0.96875H167.395L167.711 0.734375ZM166.996 3.34766V3.51172H167.078V3.34766H166.996ZM166.129 3.74609H166.281V4.77734H166.129V3.74609ZM167.875 4.22656V4.39062C167.977 4.39062 168.027 4.44141 168.027 4.54297H168.109V4.39062L167.875 4.22656ZM170.09 8.58594H170.805V8.75H170.09V8.58594ZM171.918 8.58594H172.082V8.75H171.918V8.58594ZM186.051 0.734375H197.324C197.395 0.734375 197.473 0.8125 197.559 0.96875V3.67578C197.559 3.74609 197.637 3.82422 197.793 3.91016H198.109C198.234 3.91016 198.344 3.88281 198.438 3.82812C198.695 3.89844 198.824 3.97656 198.824 4.0625V4.22656C198.824 4.32813 198.773 4.37891 198.672 4.37891H198.273V4.77734C198.273 4.88672 198.219 4.94141 198.109 4.94141H192.637C192.082 4.94141 191.238 4.96875 190.105 5.02344V5.73828C190.121 5.83984 190.172 5.89062 190.258 5.89062H190.973C191.082 5.90625 191.137 5.96094 191.137 6.05469V9.46484H198.039C198.141 9.48047 198.191 9.53125 198.191 9.61719V10.8125C198.191 10.9141 197.902 10.9922 197.324 11.0469L197.16 10.9648L196.691 11.0469C196.582 10.9922 196.5 10.9648 196.445 10.9648L196.363 11.3633V12.7109L196.445 13.5078L196.211 13.6719H189.461C189.461 13.8516 189.277 13.957 188.91 13.9883L188.43 13.9062H188.277C188.168 13.9219 188.113 13.9766 188.113 14.0703V14.1406H188.594L189.391 14.2227V16.8477C189.391 17.1289 189.547 17.2852 189.859 17.3164C189.859 17.4336 189.887 17.5391 189.941 17.6328C189.887 17.7266 189.859 17.832 189.859 17.9492V18.0312H197.406C197.508 18.0312 197.586 18.2969 197.641 18.8281H198.824C198.934 18.8438 198.988 18.8945 198.988 18.9805C198.988 19.0898 198.934 19.1445 198.824 19.1445H197.957L197.559 19.2266V22.2383H184.551C184.496 22.2383 184.469 22.2109 184.469 22.1562L184.305 22.2383H183.836C183.758 22.2383 183.676 22.1602 183.59 22.0039V21.8398C183.59 21.7852 183.617 21.7578 183.672 21.7578L183.59 21.6055V19.6953L183.191 19.625H182.488C182.379 19.625 182.324 19.5703 182.324 19.4609V19.2969C182.34 19.1953 182.395 19.1445 182.488 19.1445C183.371 19.0898 184.059 19.0625 184.551 19.0625H184.867V18.9102L184.07 18.8281H183.754C183.645 18.8281 183.59 18.75 183.59 18.5938L183.672 18.4297C183.617 18.3359 183.59 18.2305 183.59 18.1133C183.59 18.043 183.75 17.9648 184.07 17.8789C184.125 17.7852 184.152 17.6758 184.152 17.5508C184.152 17.3242 183.965 17.1953 183.59 17.1641V14.457L183.672 14.3047L183.52 14.2227H182.488C182.379 14.2227 182.324 14.1719 182.324 14.0703C182.34 13.9609 182.395 13.9062 182.488 13.9062H183.438C183.539 13.9062 183.59 13.8516 183.59 13.7422V11.1289C183.59 11.0195 183.672 10.9648 183.836 10.9648C184 10.9648 184.5 10.9414 185.336 10.8945V6.05469C185.336 5.89062 185.047 5.80859 184.469 5.80859H184.305V4.54297L184.867 4.22656V4.0625C184.867 3.96094 184.812 3.91016 184.703 3.91016H183.754C183.645 3.91016 183.59 3.85547 183.59 3.74609V0.96875L183.672 0.816406C184.734 0.761719 185.527 0.734375 186.051 0.734375ZM183.039 10.2617H183.438C183.539 10.2773 183.59 10.3281 183.59 10.4141V10.8125C183.59 10.9141 183.539 10.9648 183.438 10.9648H183.039C182.93 10.9648 182.875 10.9141 182.875 10.8125V10.4141C182.898 10.3125 182.953 10.2617 183.039 10.2617ZM185.898 19.0625H186.613V18.9102H186.051C185.949 18.9258 185.898 18.9766 185.898 19.0625ZM194.465 19.1445V19.4609C194.48 19.5703 194.535 19.625 194.629 19.625H195.73C195.73 19.5625 195.758 19.4805 195.812 19.3789C195.758 19.2773 195.73 19.1992 195.73 19.1445H194.465ZM200.98 0.734375H205.504C208.73 0.734375 211.25 1.47656 213.062 2.96094C214.391 4.04688 215.371 5.13281 216.004 6.21875H217.117C218.07 7.84375 218.547 9.24609 218.547 10.4258V10.5898C218.547 10.6133 218.492 10.6914 218.383 10.8242L217.984 10.7539H217.352V11.1406C217.352 11.25 217.297 11.3047 217.188 11.3047H216.32V11.9375H217.188C217.297 11.9531 217.352 12.0078 217.352 12.1016V12.2539C217.352 13.4102 216.902 14.9219 216.004 16.7891C215.895 16.8047 215.84 16.8594 215.84 16.9531V17.0234H217.352C217.453 17.0391 217.504 17.0938 217.504 17.1875C217.332 17.2891 217.176 17.3398 217.035 17.3398H215.676L214.492 18.7812H212.98C212.184 18.7812 211.785 18.9102 211.785 19.168V19.25H213.848C213.957 19.2656 214.012 19.3203 214.012 19.4141C213.926 19.4141 213.609 19.6523 213.062 20.1289C211.062 21.5586 209.129 22.2734 207.262 22.2734H198.508V19.4141C198.508 19.3047 198.457 19.25 198.355 19.25H198.191C196.816 19.25 196.129 19.1719 196.129 19.0156V18.9336C196.145 18.832 196.199 18.7812 196.293 18.7812H198.355C198.457 18.7812 198.508 18.7266 198.508 18.6172V17.3398C198.859 17.3398 199.391 17.3164 200.102 17.2695V17.1055C199.383 17.0508 198.879 17.0234 198.59 17.0234L198.508 16.8711V12.1836C198.508 12.1055 198.43 12.0234 198.273 11.9375H197.559C197.457 11.9375 197.406 11.8867 197.406 11.7852V11.4688C197.406 11.3438 197.617 11.2617 198.039 11.2227L198.191 11.3047L198.754 10.8242C199.441 10.8242 199.785 10.7461 199.785 10.5898V6.38281C199.785 6.25781 199.359 6.14844 198.508 6.05469V0.96875L198.59 0.816406C199.652 0.761719 200.449 0.734375 200.98 0.734375ZM204.238 5.1875V6.05469C204.254 6.16406 204.305 6.21875 204.391 6.21875H205.352C205.453 6.23438 205.504 6.28906 205.504 6.38281V10.5898C205.504 10.6289 205.426 10.707 205.27 10.8242L204.871 10.7539H204.391L204.074 11.3047H203.359C203.258 11.3203 203.207 11.375 203.207 11.4688V11.9375H204.074C204.121 11.9375 204.203 12.0195 204.32 12.1836L204.238 12.582V15.6758C204.238 15.793 204.266 15.8984 204.32 15.9922C204.266 16.0859 204.238 16.1914 204.238 16.3086V16.625L204.32 17.0234H205.27C205.387 17.0234 205.492 17.0508 205.586 17.1055C205.68 17.0508 205.785 17.0234 205.902 17.0234L205.984 17.1875L205.668 17.3398C205.559 17.3398 205.504 17.3164 205.504 17.2695L204.953 17.3398H204.32L204.238 17.7383V17.9023C204.254 18.0117 204.305 18.0664 204.391 18.0664H206.066C206.582 18.0664 207.43 17.8242 208.609 17.3398C209.406 17.293 209.988 17.2695 210.355 17.2695L210.438 17.1055C209.906 17.0508 209.508 17.0234 209.242 17.0234H209.09V16.8711C210.066 16.1602 210.781 15.125 211.234 13.7656L211.633 12.1016L211.387 11.9375H210.672C210.57 11.9375 210.52 11.8867 210.52 11.7852V11.4688C210.52 11.3906 210.598 11.3086 210.754 11.2227C210.809 11.2227 210.836 11.25 210.836 11.3047C211.328 11.3047 211.645 11.1445 211.785 10.8242H212.266L212.816 10.7539V10.5898C212.621 9.02734 211.855 7.59766 210.52 6.30078C209.355 6.20703 208.637 6.01953 208.363 5.73828C207.512 5.26172 206.797 5.02344 206.219 5.02344H204.391C204.289 5.03906 204.238 5.09375 204.238 5.1875ZM198.121 6.21875H198.273C198.383 6.23438 198.438 6.28906 198.438 6.38281V6.53516C198.438 6.62891 198.305 6.70703 198.039 6.76953L197.957 6.61719V6.38281C197.973 6.27344 198.027 6.21875 198.121 6.21875ZM209.406 10.8242H210.273C210.383 10.8398 210.438 10.8945 210.438 10.9883V11.0703C210.438 11.1719 210.383 11.2227 210.273 11.2227H209.559C209.457 11.2227 209.406 11.1719 209.406 11.0703V10.8242ZM196.68 11.2227H196.844C196.953 11.2383 197.008 11.293 197.008 11.3867V11.7852C197.008 11.8867 196.953 11.9375 196.844 11.9375H196.527V11.3867C196.543 11.2773 196.594 11.2227 196.68 11.2227Z" fill="black"/>
</svg>
