<svg width="112" height="24" viewBox="0 0 112 24" fill="none" xmlns="http://www.w3.org/2000/svg">
<g clip-path="url(#clip0_106_147)">
<path d="M39.541 13.8232L38.8734 15.7209H38.8178C38.7065 15.293 38.5025 14.6418 38.1687 13.8604L34.5895 4.83718H31.0845V19.2186H33.4026V10.3442C33.4026 9.78601 33.4026 9.15346 33.3841 8.37206C33.3655 7.98136 33.3284 7.68369 33.3099 7.46043H33.3655C33.4768 8.01857 33.6066 8.42787 33.6993 8.68834L38.0018 19.1814H39.6338L43.8991 8.59532C43.9919 8.35346 44.0846 7.86973 44.1773 7.46043H44.233C44.1773 8.5209 44.1402 9.46973 44.1217 10.0465V19.1628H46.5882V4.79997H43.213L39.541 13.8232ZM48.9249 8.85578H51.3357V19.1628H48.9249V8.85578ZM50.1489 4.50229C49.7409 4.50229 49.407 4.65113 49.1289 4.91159C48.8507 5.17206 48.7023 5.50694 48.7023 5.91625C48.7023 6.30694 48.8507 6.64183 49.1289 6.90229C49.407 7.16276 49.7409 7.29299 50.1489 7.29299C50.5568 7.29299 50.9092 7.14415 51.1688 6.90229C51.447 6.64183 51.5954 6.30694 51.5954 5.91625C51.5954 5.52555 51.447 5.19066 51.1688 4.91159C50.9277 4.65113 50.5754 4.50229 50.1489 4.50229M59.885 8.76276C59.44 8.66973 58.9763 8.61392 58.5312 8.61392C57.4371 8.61392 56.4356 8.85578 55.6011 9.3395C54.7666 9.82322 54.099 10.493 53.6724 11.3302C53.2273 12.186 53.0048 13.1721 53.0048 14.3069C53.0048 15.293 53.2273 16.1674 53.6539 16.9674C54.0804 17.7488 54.6739 18.3814 55.4713 18.8093C56.2317 19.2372 57.1218 19.4604 58.1233 19.4604C59.273 19.4604 60.2559 19.2186 61.0348 18.7721L61.0534 18.7535V16.5209L60.9607 16.5953C60.6083 16.8558 60.2003 17.079 59.7923 17.2093C59.3658 17.3581 58.9763 17.4325 58.6425 17.4325C57.6782 17.4325 56.9178 17.1535 56.38 16.5395C55.8237 15.9442 55.5455 15.1255 55.5455 14.1023C55.5455 13.0418 55.8237 12.2046 56.3986 11.5907C56.9735 10.9767 57.7338 10.6604 58.6611 10.6604C59.44 10.6604 60.2374 10.9209 60.9607 11.4418L61.0534 11.5162V9.15346L61.0348 9.13485C60.7196 9.00462 60.3672 8.85578 59.885 8.76276M67.8409 8.68834C67.2474 8.68834 66.6911 8.87439 66.2089 9.26508C65.8009 9.59997 65.5228 10.0837 65.2817 10.6604H65.2631V8.85578H62.8523V19.1628H65.2631V13.8976C65.2631 13.0046 65.4486 12.2604 65.8566 11.7209C66.2646 11.1628 66.7838 10.8837 67.4144 10.8837C67.6369 10.8837 67.8594 10.9395 68.1376 10.9767C68.3972 11.0511 68.5827 11.1255 68.7125 11.2186L68.8052 11.293V8.87439L68.7496 8.85578C68.5827 8.74415 68.2489 8.68834 67.8409 8.68834M74.4059 8.63253C72.7183 8.63253 71.3645 9.13485 70.4187 10.1209C69.4543 11.1069 68.9907 12.4651 68.9907 14.1767C68.9907 15.7767 69.4729 17.079 70.4001 18.0279C71.3274 18.9581 72.5884 19.4418 74.1648 19.4418C75.8153 19.4418 77.132 18.9395 78.0778 17.9349C79.0421 16.9302 79.5058 15.5907 79.5058 13.9349C79.5058 12.2976 79.0607 10.9953 78.152 10.0465C77.2804 9.09764 76.0007 8.63253 74.4059 8.63253M76.3346 16.5581C75.8895 17.1349 75.1848 17.4139 74.3131 17.4139C73.4415 17.4139 72.7368 17.1349 72.2361 16.5209C71.7354 15.9442 71.4943 15.1069 71.4943 14.0465C71.4943 12.9488 71.7539 12.1116 72.2361 11.5162C72.7368 10.9209 73.423 10.6232 74.2946 10.6232C75.1477 10.6232 75.8153 10.9023 76.2975 11.479C76.7796 12.0558 77.0393 12.893 77.0393 13.9907C77.0022 15.1069 76.7982 15.9814 76.3346 16.5581M84.8839 13.1349C84.1235 12.8186 83.6413 12.5767 83.4188 12.3721C83.2333 12.186 83.1406 11.9255 83.1406 11.5907C83.1406 11.3116 83.2519 11.0325 83.5301 10.8465C83.8082 10.6604 84.1235 10.5674 84.5871 10.5674C84.9951 10.5674 85.4217 10.6418 85.8297 10.7535C86.2377 10.8651 86.6086 11.0325 86.9053 11.2558L86.998 11.3302V9.06043L86.9424 9.04183C86.6642 8.9302 86.2933 8.81857 85.8482 8.72555C85.4031 8.65113 84.9951 8.61392 84.6613 8.61392C83.5115 8.61392 82.5657 8.89299 81.8239 9.50694C81.0821 10.0837 80.7298 10.8651 80.7298 11.7767C80.7298 12.2604 80.8039 12.6883 80.9708 13.0418C81.1377 13.3953 81.3788 13.7302 81.7126 14.0093C82.0465 14.2697 82.5286 14.5674 83.1963 14.8465C83.7526 15.0883 84.1791 15.2744 84.4388 15.4232C84.6984 15.5721 84.8653 15.7395 84.9951 15.8697C85.0879 16.0186 85.1435 16.2046 85.1435 16.4465C85.1435 17.1349 84.6242 17.4697 83.5672 17.4697C83.1592 17.4697 82.7326 17.3953 82.2319 17.2279C81.7312 17.0604 81.2676 16.8186 80.8781 16.5395L80.7854 16.4651V18.8279L80.841 18.8465C81.1934 19.0139 81.6199 19.1255 82.1392 19.2558C82.6584 19.3488 83.1221 19.4232 83.5301 19.4232C84.7726 19.4232 85.7926 19.1442 86.5158 18.5302C87.2576 17.9349 87.6471 17.1721 87.6471 16.186C87.6471 15.4976 87.4616 14.8837 87.0536 14.4186C86.5158 13.9721 85.8482 13.5069 84.8839 13.1349M94.0081 8.63253C92.3204 8.63253 90.9667 9.13485 90.0209 10.1209C89.0751 11.1069 88.5929 12.4651 88.5929 14.1767C88.5929 15.7767 89.0751 17.079 90.0023 18.0279C90.9296 18.9581 92.1906 19.4418 93.767 19.4418C95.4175 19.4418 96.7342 18.9395 97.68 17.9349C98.6443 16.9302 99.108 15.5907 99.108 13.9349C99.108 12.2976 98.6629 10.9953 97.7542 10.0465C96.8825 9.09764 95.6029 8.63253 94.0081 8.63253M95.9182 16.5581C95.4731 17.1349 94.7684 17.4139 93.8968 17.4139C93.0066 17.4139 92.3205 17.1349 91.8197 16.5209C91.319 15.9442 91.0779 15.1069 91.0779 14.0465C91.0779 12.9488 91.3376 12.1116 91.8197 11.5162C92.3205 10.9209 93.0066 10.6232 93.8782 10.6232C94.7128 10.6232 95.3989 10.9023 95.8811 11.479C96.3633 12.0558 96.6229 12.893 96.6229 13.9907C96.6229 15.1069 96.3818 15.9814 95.9182 16.5581M111.997 10.8465V8.85578H109.567V5.80462L109.493 5.82322L107.194 6.51159L107.138 6.5302V8.85578H103.503V7.55346C103.503 6.95811 103.652 6.49299 103.911 6.19532C104.171 5.89764 104.56 5.7488 105.042 5.7488C105.376 5.7488 105.729 5.82322 106.118 5.99066L106.211 6.04648V3.94415L106.155 3.92555C105.821 3.81392 105.376 3.7395 104.801 3.7395C104.078 3.7395 103.448 3.90694 102.873 4.18601C102.298 4.50229 101.871 4.9302 101.556 5.50694C101.241 6.06508 101.074 6.69764 101.074 7.42322V8.85578H99.3861V10.8279H101.074V19.1628H103.503V10.8465H107.138V16.1488C107.138 18.3255 108.158 19.4232 110.198 19.4232C110.532 19.4232 110.884 19.3674 111.218 19.3116C111.57 19.2372 111.83 19.1442 111.978 19.0697L111.997 19.0511V17.0604L111.904 17.1349C111.756 17.2279 111.626 17.3023 111.403 17.3581C111.218 17.4139 111.051 17.4325 110.921 17.4325C110.439 17.4325 110.105 17.3209 109.864 17.0418C109.642 16.7814 109.53 16.3535 109.53 15.7209V10.8465H111.997V10.8465Z" fill="#737373"/>
<path d="M0.00292969 0H11.3711V11.4047H0.00292969V0Z" fill="#F25022"/>
<path d="M12.5581 0H23.9263V11.4047H12.5581V0Z" fill="#7FBA00"/>
<path d="M0.00292969 12.5955H11.3711V24.0001H0.00292969V12.5955Z" fill="#00A4EF"/>
<path d="M12.5581 12.5955H23.9263V24.0001H12.5581V12.5955Z" fill="#FFB900"/>
</g>
<defs>
<clipPath id="clip0_106_147">
<rect width="112" height="24" fill="white"/>
</clipPath>
</defs>
</svg>
