<svg width="123" height="26" viewBox="0 0 123 26" fill="none" xmlns="http://www.w3.org/2000/svg">
<path d="M60.8268 7.4032C59.2734 7.4032 57.7555 7.97499 56.6434 9.06665C55.5313 10.1583 54.9666 11.6658 54.9666 13.1733C54.9666 14.6981 55.5138 16.1883 56.6081 17.2972C57.7025 18.4062 59.2205 18.978 60.7739 18.978C62.3272 18.978 63.8452 18.4062 64.9572 17.3145C66.0693 16.2228 66.6341 14.7154 66.6341 13.2079C66.6341 11.683 66.0869 10.193 64.9925 9.08392C63.8805 7.99238 62.3801 7.4032 60.8268 7.4032ZM63.9335 13.8664C63.8982 14.0743 63.8274 14.2822 63.757 14.4902C63.6863 14.6807 63.5804 14.8714 63.4745 15.0446C63.3686 15.2179 63.245 15.374 63.1038 15.5124C62.9626 15.6509 62.8037 15.7724 62.6448 15.8937C62.4684 15.9977 62.2918 16.1016 62.0977 16.1709C61.9035 16.2576 61.6917 16.3095 61.4798 16.3442C61.2679 16.3788 61.0385 16.3962 60.8268 16.3962C60.5973 16.3962 60.3855 16.3788 60.1737 16.3269C59.9619 16.2923 59.7501 16.2228 59.5559 16.1537C59.3617 16.0845 59.1852 15.9803 59.0087 15.8763C58.8498 15.7724 58.6909 15.6338 58.5497 15.4952C58.4085 15.3566 58.2849 15.2006 58.179 15.0273C58.0731 14.8541 57.9673 14.6635 57.8967 14.4728C57.8084 14.2649 57.7555 14.057 57.7202 13.849C57.6849 13.6237 57.6672 13.3985 57.6672 13.1733C57.6672 12.948 57.6849 12.7227 57.7378 12.4974C57.7731 12.2896 57.8438 12.0816 57.9142 11.8737C57.985 11.683 58.0909 11.4925 58.1968 11.3193C58.3027 11.146 58.4263 10.9899 58.5674 10.8514C58.7086 10.713 58.8675 10.5915 59.0264 10.4702C59.2028 10.3662 59.3794 10.2623 59.5735 10.193C59.7677 10.1063 59.9795 10.0544 60.1914 10.0197C60.4033 9.98507 60.6327 9.96768 60.8445 9.96768C61.074 9.96768 61.2858 9.98507 61.4975 10.037C61.7093 10.0716 61.9211 10.1411 62.1153 10.2102C62.3095 10.2794 62.486 10.3835 62.6625 10.4876C62.8214 10.5915 62.9803 10.73 63.1215 10.8687C63.2627 11.0074 63.3863 11.1633 63.4922 11.3365C63.5981 11.5098 63.704 11.7004 63.7746 11.8911C63.8629 12.099 63.9158 12.3069 63.951 12.5148C63.9863 12.7401 64.0041 12.9654 64.0041 13.1906C63.9863 13.4332 63.9688 13.6412 63.9335 13.8664ZM38.9391 2.94998C37.4033 1.7371 35.6206 0.88811 33.6966 0.437535C32.6022 0.177598 31.4901 0.056383 30.3605 0.0217328C29.5308 -0.0130398 28.6835 0.00434668 27.854 0.00434668H15.9746C15.1449 0.00434668 14.2977 0.00434647 13.4681 0.0217328C12.3384 0.056383 11.244 0.177598 10.132 0.437535C8.20793 0.88811 6.44279 1.7371 4.90715 2.94998C1.80044 5.39325 0 9.08392 0 13C0 16.9161 1.80044 20.6068 4.90715 23.05C6.44279 24.2629 8.22564 25.1119 10.1496 25.5625C11.244 25.8224 12.356 25.9436 13.4858 25.9783C14.3153 26.013 15.1626 25.9957 15.9922 25.9957H27.8716C28.7012 25.9957 29.5485 25.9957 30.3781 25.9783C31.5079 25.9436 32.6022 25.8224 33.7143 25.5625C35.6382 25.1119 37.4033 24.2629 38.9391 23.05C42.0457 20.6068 43.8461 16.9161 43.8461 13C43.8461 9.08392 42.0458 5.39325 38.9391 2.94998ZM33.1318 16.5002C32.5493 16.8987 31.8961 17.1412 31.2078 17.2452C30.5194 17.3491 29.8133 17.3319 29.1248 17.3319H14.739C14.0329 17.3319 13.3446 17.3493 12.6561 17.2452C11.9501 17.1412 11.3146 16.8987 10.732 16.5002C9.56708 15.7031 8.86113 14.4035 8.86113 13C8.86113 11.5965 9.56708 10.2969 10.732 9.49984C11.3145 9.1013 11.9677 8.85875 12.6561 8.7548C13.3444 8.65085 14.0505 8.66811 14.739 8.66811H29.1248C29.8309 8.66811 30.5193 8.65073 31.2078 8.7548C31.9137 8.85875 32.5492 9.1013 33.1317 9.49984C34.2966 10.2969 35.0027 11.5965 35.0027 13C35.0204 14.4035 34.3143 15.7031 33.1318 16.5002ZM108.415 12.8614C108.415 13.1733 108.415 13.4852 108.397 13.7797C108.38 13.9703 108.362 14.1782 108.327 14.3689C108.256 14.7328 108.133 15.0793 107.938 15.3912C107.444 16.1537 106.562 16.5348 105.679 16.5522C104.779 16.5695 103.914 16.2057 103.437 15.4086C103.243 15.0793 103.12 14.7328 103.049 14.3689C102.961 13.8838 102.925 13.3639 102.925 12.8788C102.925 12.5494 102.908 12.2376 102.908 11.9083V7.61122H100.225V12.099C100.225 12.5322 100.225 12.9654 100.242 13.3985C100.26 13.7104 100.26 14.0396 100.295 14.3516C100.366 15.0966 100.507 15.8244 100.843 16.5175C101.548 17.9211 102.925 18.7354 104.461 18.9088C105.22 18.9953 105.997 18.9259 106.72 18.7181C107.426 18.5101 108.168 18.1636 108.68 17.6265C108.697 17.973 108.733 18.3543 108.75 18.7008H111.098V7.6111H108.415L108.415 12.8614ZM122.818 14.3689C122.43 13.2946 121.477 12.6361 120.471 12.255C119.906 12.0297 119.324 11.9085 118.741 11.7697C118.476 11.7178 118.229 11.6658 117.964 11.5965C117.753 11.5444 117.523 11.4753 117.311 11.3886C117.082 11.2845 116.852 11.1633 116.693 10.9727C116.552 10.8167 116.482 10.6088 116.517 10.4009C116.552 10.1583 116.693 9.95029 116.888 9.79443C117.029 9.69036 117.17 9.60379 117.329 9.55188C117.541 9.46519 117.753 9.43054 117.964 9.39589C118.406 9.34385 118.847 9.37851 119.271 9.46519C119.924 9.60379 120.524 9.84635 121.089 10.193C121.53 9.58653 121.989 8.99735 122.43 8.39091C121.53 7.7497 120.524 7.35116 119.429 7.17791C118.812 7.09135 118.194 7.07396 117.594 7.16065C117.117 7.22995 116.658 7.3339 116.217 7.52454C115.634 7.76709 115.105 8.11359 114.699 8.61608C114.399 8.96258 114.187 9.37851 114.063 9.8117C113.902 10.3557 113.908 10.9346 114.081 11.4751C114.24 11.9776 114.54 12.3934 114.928 12.7401C115.758 13.4506 116.941 13.7104 117.947 13.9184C118.3 13.9877 118.653 14.057 119.006 14.1608C119.288 14.2475 119.588 14.3342 119.835 14.4902C120.03 14.6114 120.224 14.7674 120.347 14.9579C120.453 15.1313 120.506 15.3219 120.489 15.5126C120.471 15.7032 120.4 15.8591 120.277 16.0149C120.135 16.1883 119.959 16.3095 119.765 16.4135C119.5 16.5348 119.218 16.6041 118.935 16.6388C118.547 16.6908 118.123 16.6734 117.735 16.6215C117.294 16.5695 116.888 16.4655 116.464 16.3269C115.829 16.1016 115.281 15.7724 114.752 15.3738L113.322 17.2452C114.169 17.9383 115.14 18.4408 116.199 18.7528C116.782 18.9087 117.382 19.0126 118 19.03C118.494 19.0473 118.97 19.0126 119.465 18.9433C120.083 18.8394 120.7 18.6488 121.248 18.3196C121.654 18.0769 121.989 17.7825 122.289 17.4185C122.66 16.9507 122.889 16.3961 122.977 15.8072C123.03 15.3219 122.995 14.8367 122.818 14.3689ZM75.3186 16.2923C74.7008 16.4309 74.0301 16.4135 73.4122 16.223C72.7943 16.0324 72.2649 15.6512 71.8766 15.1313C71.5059 14.6114 71.3117 13.9877 71.2764 13.3639C71.2411 12.7401 71.3647 12.0816 71.6648 11.5272C71.9825 10.938 72.4414 10.5395 73.0593 10.2795C73.3239 10.1756 73.5887 10.089 73.8712 10.0542C74.2418 10.0023 74.5772 9.98507 74.9479 10.0371C75.601 10.1063 76.2011 10.3488 76.7483 10.6955C77.2955 10.0196 77.8251 9.34385 78.3723 8.6855C77.4368 7.95772 76.3776 7.54192 75.2127 7.42059C74.0653 7.29925 72.8828 7.4725 71.8236 7.95773C70.7645 8.46021 69.9173 9.2399 69.3524 10.2623C68.8052 11.2672 68.5758 12.4282 68.6287 13.5545C68.6816 14.6808 69.0347 15.807 69.7055 16.7428C70.3763 17.6958 71.3294 18.3715 72.4414 18.7354C73.5358 19.0993 74.7361 19.1686 75.8658 18.926C76.9954 18.6835 78.0546 18.1462 78.8666 17.3145C78.2487 16.6908 77.6486 16.067 77.0308 15.4431C76.5189 15.8591 75.9363 16.1537 75.3186 16.2923ZM94.5056 1.7371H97.3299V18.7181H94.5056V1.7371ZM88.716 12.8614C88.716 13.1733 88.716 13.4852 88.6983 13.7797C88.6807 13.9703 88.663 14.1782 88.6277 14.3689C88.5571 14.7328 88.4336 15.0793 88.2394 15.3912C87.7451 16.1537 86.8626 16.5348 85.98 16.5522C85.0799 16.5695 84.2149 16.2057 83.7383 15.4086C83.5441 15.0793 83.4206 14.7328 83.35 14.3689C83.2617 13.8838 83.2265 13.3639 83.2265 12.8788C83.2265 12.5494 83.2088 12.2376 83.2088 11.9083V7.61122H80.5257V12.099C80.5257 12.5322 80.5257 12.9654 80.5433 13.3985C80.561 13.7104 80.561 14.0396 80.5963 14.3516C80.6669 15.0966 80.8081 15.8244 81.1435 16.5175C81.8494 17.9211 83.2264 18.7354 84.7619 18.9088C85.521 18.9953 86.2977 18.9259 87.0214 18.7181C87.7273 18.5101 88.4688 18.1636 88.9807 17.6265C88.9983 17.973 89.0336 18.3543 89.0513 18.7008H91.3283V7.6111H88.7159L88.716 12.8614Z" fill="#030303"/>
</svg>
