<svg width="47" height="47" viewBox="0 0 47 47" fill="none" xmlns="http://www.w3.org/2000/svg">
<path d="M23.5 45.5C35.6503 45.5 45.5 35.6503 45.5 23.5C45.5 11.3497 35.6503 1.5 23.5 1.5C11.3497 1.5 1.5 11.3497 1.5 23.5C1.5 35.6503 11.3497 45.5 23.5 45.5Z" stroke="#25741C" stroke-width="3" stroke-linecap="round" stroke-linejoin="round"/>
<path d="M23.5 36.5C30.6797 36.5 36.5 30.6797 36.5 23.5C36.5 16.3203 30.6797 10.5 23.5 10.5C16.3203 10.5 10.5 16.3203 10.5 23.5C10.5 30.6797 16.3203 36.5 23.5 36.5Z" stroke="#25741C" stroke-width="3" stroke-linecap="round" stroke-linejoin="round"/>
<path d="M18.5 18.5L28.5 28.5" stroke="#25741C" stroke-width="3" stroke-linecap="round" stroke-linejoin="round"/>
<path d="M28.5 18.5L18.5 28.5" stroke="#25741C" stroke-width="3" stroke-linecap="round" stroke-linejoin="round"/>
<path d="M7.94385 7.94409L14.3078 14.3081" stroke="#25741C" stroke-width="3" stroke-linecap="round" stroke-linejoin="round"/>
<path d="M1.5 23.5H10.5" stroke="#25741C" stroke-width="3" stroke-linecap="round" stroke-linejoin="round"/>
<path d="M7.94385 39.0559L14.3078 32.6919" stroke="#25741C" stroke-width="3" stroke-linecap="round" stroke-linejoin="round"/>
<path d="M23.5 45.5V36.5" stroke="#25741C" stroke-width="3" stroke-linecap="round" stroke-linejoin="round"/>
<path d="M39.0559 39.0559L32.6919 32.6919" stroke="#25741C" stroke-width="3" stroke-linecap="round" stroke-linejoin="round"/>
<path d="M45.5 23.5H36.5" stroke="#25741C" stroke-width="3" stroke-linecap="round" stroke-linejoin="round"/>
<path d="M39.0559 7.94409L32.6919 14.3081" stroke="#25741C" stroke-width="3" stroke-linecap="round" stroke-linejoin="round"/>
<path d="M23.5001 4.5L26.3151 1.685C24.4465 1.43833 22.5536 1.43833 20.6851 1.685L23.5001 4.5Z" fill="#25741C"/>
<path d="M20.6851 1.68506L23.5001 4.50006L26.3151 1.68506" stroke="#25741C" stroke-width="3" stroke-linecap="round" stroke-linejoin="round"/>
</svg>
