<svg width="47" height="48" viewBox="0 0 47 48" fill="none" xmlns="http://www.w3.org/2000/svg">
<path d="M4.73486 24.323C6.32724 22.6021 8.39191 21.3892 10.6704 20.8362C12.9488 20.2832 15.3398 20.4146 17.5439 21.214" stroke="#25741C" stroke-width="3" stroke-linecap="round" stroke-linejoin="round"/>
<path d="M4.729 24.3291C6.44349 22.4767 8.70099 21.2153 11.1772 20.7262C13.6535 20.2372 16.221 20.5456 18.511 21.6071" stroke="#25741C" stroke-width="3" stroke-linecap="round" stroke-linejoin="round"/>
<path d="M19.5002 11.5462C16.5008 10.4726 13.2689 10.2204 10.1392 10.8158C7.00954 11.4111 4.09595 12.8323 1.7002 14.9322" stroke="#25741C" stroke-width="3" stroke-linecap="round" stroke-linejoin="round"/>
<path d="M42.267 30.323C40.6746 28.6021 38.61 27.3892 36.3315 26.8362C34.0531 26.2832 31.6621 26.4146 29.458 27.214" stroke="#25741C" stroke-width="3" stroke-linecap="round" stroke-linejoin="round"/>
<path d="M42.2732 30.3291C40.5587 28.4767 38.3012 27.2153 35.825 26.7262C33.3487 26.2372 30.7812 26.5456 28.4912 27.6071" stroke="#25741C" stroke-width="3" stroke-linecap="round" stroke-linejoin="round"/>
<path d="M27.5 17.5462C30.4994 16.4726 33.7313 16.2204 36.861 16.8158C39.9907 17.4111 42.9042 18.8323 45.3 20.9322" stroke="#25741C" stroke-width="3" stroke-linecap="round" stroke-linejoin="round"/>
<path d="M42.2722 30.328C40.5577 28.4763 38.3005 27.2154 35.8248 26.7264C33.349 26.2373 30.782 26.5453 28.4922 27.606" stroke="#25741C" stroke-width="3" stroke-linecap="round" stroke-linejoin="round"/>
<path d="M13.5 36.5C14.6046 36.5 15.5 35.6046 15.5 34.5C15.5 33.3954 14.6046 32.5 13.5 32.5C12.3954 32.5 11.5 33.3954 11.5 34.5C11.5 35.6046 12.3954 36.5 13.5 36.5Z" fill="#25741C"/>
<path d="M33.5 42.5C34.6046 42.5 35.5 41.6046 35.5 40.5C35.5 39.3954 34.6046 38.5 33.5 38.5C32.3954 38.5 31.5 39.3954 31.5 40.5C31.5 41.6046 32.3954 42.5 33.5 42.5Z" fill="#25741C"/>
<path d="M19.5 11.5001C19.5 16.2601 18.5 16.5001 18.5 22.6231C18.5 28.5001 19.555 29.9611 19.5 34.5001C19.5011 35.9195 18.9988 37.2934 18.0826 38.3775C17.1664 39.4616 15.8954 40.1858 14.4957 40.4214C13.0959 40.6569 11.658 40.3886 10.4374 39.664C9.21678 38.9395 8.29257 37.8057 7.829 36.4641C6.362 32.7181 6.675 30.4641 5 25.1281C3.468 20.2501 1.5 17.3051 1.5 12.5001C1.5 7.53108 6.665 2.94508 12.1 2.50008C16.418 2.14708 19.5 4.50008 19.5 11.5001Z" stroke="#25741C" stroke-width="3" stroke-linecap="round" stroke-linejoin="round"/>
<path d="M27.5 17.5001C27.5 22.2601 28.5 22.5001 28.5 28.6231C28.5 34.5001 27.447 35.9611 27.5 40.5001C27.4989 41.9195 28.0011 43.2934 28.9174 44.3775C29.8336 45.4616 31.1045 46.1858 32.5043 46.4214C33.9041 46.6569 35.342 46.3886 36.5626 45.664C37.7832 44.9395 38.7074 43.8057 39.171 42.4641C40.638 38.7181 40.325 36.4641 42 31.1281C43.534 26.2501 45.5 23.3051 45.5 18.5001C45.5 13.5311 40.335 8.94508 34.9 8.50008C30.584 8.14708 27.5 10.5001 27.5 17.5001Z" stroke="#25741C" stroke-width="3" stroke-linecap="round" stroke-linejoin="round"/>
</svg>
