<svg width="48" height="48" viewBox="0 0 48 48" fill="none" xmlns="http://www.w3.org/2000/svg">
<path d="M24.483 38.5H24.5C21.8736 38.5 19.2728 37.9827 16.8463 36.9776C14.4198 35.9725 12.215 34.4993 10.3579 32.6421C6.60714 28.8914 4.5 23.8043 4.5 18.5C7.27238 18.5005 10.0141 19.0795 12.55 20.2" stroke="#25741C" stroke-width="3" stroke-linecap="round" stroke-linejoin="round"/>
<path d="M6.1999 35.4929C5.24295 36.0524 4.35259 36.7187 3.5459 37.4789C4.82578 38.9643 6.3944 40.1739 8.15638 41.034C9.91836 41.8942 11.8369 42.387 13.7953 42.4825C15.7537 42.578 17.7111 42.2742 19.5484 41.5896C21.3857 40.9049 23.0646 39.8537 24.4829 38.4999H24.4999" stroke="#25741C" stroke-width="3" stroke-linecap="round" stroke-linejoin="round"/>
<path d="M24.4999 38.5H24.4829C27.1093 38.5 29.7101 37.9827 32.1366 36.9776C34.5631 35.9725 36.7679 34.4993 38.625 32.6421C40.4822 30.785 41.9554 28.5802 42.9605 26.1537C43.9656 23.7272 44.4829 21.1264 44.4829 18.5C41.7105 18.5005 38.9688 19.0795 36.4329 20.2" stroke="#25741C" stroke-width="3" stroke-linecap="round" stroke-linejoin="round"/>
<path d="M24.4998 38.5C26.7192 36.2806 28.4797 33.6459 29.6808 30.7462C30.8819 27.8465 31.5001 24.7386 31.5001 21.6C31.5001 18.4613 30.8819 15.3534 29.6808 12.4537C28.4797 9.55401 26.7192 6.91928 24.4998 4.69995C22.2804 6.91928 20.5199 9.55401 19.3188 12.4537C18.1177 15.3534 17.4995 18.4613 17.4995 21.6C17.4995 24.7386 18.1177 27.8465 19.3188 30.7462C20.5199 33.6459 22.2804 36.2806 24.4998 38.5" stroke="#25741C" stroke-width="3" stroke-linecap="round" stroke-linejoin="round"/>
<path d="M42.7869 35.4929C43.7439 36.0524 44.6342 36.7187 45.4409 37.4789C44.161 38.9649 42.5921 40.175 40.8298 41.0355C39.0675 41.8961 37.1485 42.3891 35.1896 42.4846C33.2307 42.5801 31.2728 42.2761 29.4351 41.5911C27.5974 40.9061 25.9183 39.8544 24.4999 38.4999H24.4829" stroke="#25741C" stroke-width="3" stroke-linecap="round" stroke-linejoin="round"/>
</svg>
