<svg width="116" height="121" viewBox="0 0 116 121" fill="none" xmlns="http://www.w3.org/2000/svg">
<path d="M21.1451 0C21.7196 0 22.0069 0.153609 22.0069 0.460827C26.5143 0.153609 29.8286 0 31.9497 0H63.3691C74.7703 0 82.4152 1.03137 86.304 3.09412C88.9996 3.88411 90.6568 4.78382 91.2754 5.79325C90.9661 6.31991 90.8114 6.9124 90.8114 7.57073C95.4956 9.80903 99.539 14.7245 102.942 22.3172C105.063 28.6371 106.123 33.399 106.123 36.6028C106.123 37.7 105.682 41.2769 104.798 47.3335C106.565 47.3335 107.449 47.6407 107.449 48.2552C104.046 57.5156 98.6552 64.3622 91.2754 68.7949L84.5143 71.4282V71.889C85.2213 72.5473 86.8785 74.9392 89.4857 79.0647C88.5135 79.6353 87.7623 79.9206 87.232 79.9206L87.696 80.8422V81.303C82.2606 81.5664 78.659 81.698 76.8914 81.698V82.1589C76.9798 82.7733 77.2891 83.0805 77.8194 83.0805H89.0217L93.0651 87.9521C96.0259 87.9521 97.9703 89.4443 98.8983 92.4287V92.8896C97.3958 92.8896 96.6446 93.1968 96.6446 93.8112C105.969 107.109 110.631 113.956 110.631 114.351C109.438 114.57 108.841 114.856 108.841 115.207C110.918 118.323 111.957 120.122 111.957 120.605L111.095 121H88.5577C86.0389 121 81.9954 120.868 76.4274 120.605C74.0411 117.226 72.848 115.426 72.848 115.207C73.3341 114.9 74.0853 114.746 75.1017 114.746V114.351C66.3962 101.228 62.0434 94.0745 62.0434 92.8896H63.8331V91.9679C62.9051 89.0274 61.1154 87.5571 58.464 87.5571C56.1219 84.5727 54.3101 83.0805 53.0286 83.0805H44.9417V85.3188C44.9417 85.5822 44.8091 85.7138 44.544 85.7138L44.9417 86.6355V107.175H49.9131C50.5318 107.263 50.8411 107.57 50.8411 108.097C50.8411 108.667 50.5318 108.953 49.9131 108.953H44.9417C44.9417 110.445 44.8091 111.191 44.544 111.191L44.9417 112.113V117.445C44.9417 118.103 44.8091 118.696 44.544 119.223C44.8091 119.793 44.9417 120.254 44.9417 120.605L44.08 121H25.6526C22.6476 121 18.1402 120.868 12.1303 120.605V109.874C12.2187 109.26 12.528 108.953 13.0583 108.953H17.9634V107.636H13.0583C12.4396 107.636 12.1303 107.329 12.1303 106.714V83.5414L9.87657 83.0805H0.928C0.309333 83.0805 0 82.7733 0 82.1589L0.928 81.698C8.39619 81.5664 12.1303 81.2811 12.1303 80.8422C12.1303 79.9206 12.4396 79.4597 13.0583 79.4597C13.6328 79.767 14.0747 79.9206 14.384 79.9206L14.848 79.0647V48.6502C14.9364 48.0796 15.2236 47.7943 15.7097 47.7943H17.9634L18.4274 45.0952C17.853 44.788 17.411 44.6344 17.1017 44.6344C14.4503 44.9416 12.9478 45.0952 12.5943 45.0952C12.5943 42.7252 11.4011 41.5403 9.01486 41.5403V39.302L12.1303 37.5245V7.57073L14.848 5.79325V1.31665C14.9364 0.746101 15.2236 0.460827 15.7097 0.460827H18.8914C19.9078 0.460827 20.659 0.307218 21.1451 0ZM44.9417 23.6997C44.9417 23.963 44.8091 24.0947 44.544 24.0947C44.8091 27.0791 44.9417 29.3174 44.9417 30.8096V33.5087C44.9417 33.8159 44.8091 33.9695 44.544 33.9695L44.9417 34.8254V35.2862C44.9417 37.9634 43.7486 39.302 41.3623 39.302V42.0011C43.7486 42.1766 44.9417 42.6155 44.9417 43.3177H44.544C44.8091 43.8883 44.9417 44.3272 44.9417 44.6344H55.7463V45.556H51.7029L49.9131 47.7943H47.6594V52.2709H61.5794C67.6335 52.2709 71.699 50.7787 73.776 47.7943C76.7368 47.7943 78.2171 46.741 78.2171 44.6344H74.1737L73.312 44.2394C73.8865 42.1766 74.1737 40.3772 74.1737 38.8411V35.2862C74.1737 32.1701 71.4781 28.7468 66.0869 25.0163C65.424 24.4019 62.4411 23.963 57.1383 23.6997L56.2103 24.0947L55.2823 23.6997C55.0171 23.6997 54.8846 23.8313 54.8846 24.0947C53.824 23.8313 53.2053 23.6997 53.0286 23.6997C50.4213 23.963 48.941 24.0947 48.5874 24.0947C46.9082 23.8313 45.693 23.6997 44.9417 23.6997ZM19.3554 45.0952V45.556H20.2171V45.0952H19.3554ZM21.6091 45.0952V45.556H22.4709V45.0952H21.6091ZM106.587 44.6344H107.913V45.556H106.587V44.6344ZM109.703 44.6344H111.095V45.556H109.703V44.6344ZM111.957 44.6344H116V45.556H111.957V44.6344ZM46.3337 79.9206L45.4057 79.4597C45.4057 80.0742 45.1185 80.3814 44.544 80.3814C44.8091 80.9519 44.9417 81.3908 44.9417 81.698C47.9467 81.4347 50.2004 81.303 51.7029 81.303H52.1669L53.0286 81.698L54.8846 78.6039C53.6914 75.9267 52.9402 74.5881 52.6309 74.5881H48.5874C47.9688 74.5881 47.5048 76.3656 47.1954 79.9206H46.3337ZM32.8114 81.698V82.1589C32.8998 82.7733 33.2091 83.0805 33.7394 83.0805H41.8263C42.4008 83.0805 42.688 82.7733 42.688 82.1589V81.698H32.8114ZM68.8046 115.207H69.6663C69.6663 115.69 69.9756 116.282 70.5943 116.984V117.906C70.1966 117.862 69.6 117.116 68.8046 115.668V115.207ZM71.92 119.683H72.384V120.605H71.92V119.683Z" fill="#8FFF82"/>
<path d="M57.5 85.357V80.5" stroke="black" stroke-width="3" stroke-linecap="round" stroke-linejoin="round"/>
<path d="M38.5 79.5H33.5C32.1739 79.5 30.9021 80.0268 29.9645 80.9645C29.0268 81.9021 28.5 83.1739 28.5 84.5V89.5H43.5V84.5C43.5 83.1739 42.9732 81.9021 42.0355 80.9645C41.0979 80.0268 39.8261 79.5 38.5 79.5V79.5Z" stroke="black" stroke-width="3" stroke-linecap="round" stroke-linejoin="round"/>
<path d="M81.5 79.5H76.5C75.1739 79.5 73.9021 80.0268 72.9645 80.9645C72.0268 81.9021 71.5 83.1739 71.5 84.5V89.5H86.5V84.5C86.5 83.1739 85.9732 81.9021 85.0355 80.9645C84.0979 80.0268 82.8261 79.5 81.5 79.5V79.5Z" stroke="black" stroke-width="3" stroke-linecap="round" stroke-linejoin="round"/>
<path d="M43.5 85.5H71.5" stroke="black" stroke-width="3" stroke-linecap="round" stroke-linejoin="round"/>
<path d="M33.5 79.5L35.7 68.519C35.9267 67.3861 36.5387 66.3667 37.4319 65.634C38.3252 64.9014 39.4447 64.5007 40.6 64.5H47.5" stroke="black" stroke-width="3" stroke-linecap="round" stroke-linejoin="round"/>
<path d="M81.5 79.5L79.3 68.519C79.0733 67.3861 78.4613 66.3667 77.5681 65.634C76.6748 64.9014 75.5553 64.5007 74.4 64.5H67.5" stroke="black" stroke-width="3" stroke-linecap="round" stroke-linejoin="round"/>
<path d="M57.5 30.5V38.5" stroke="black" stroke-width="3" stroke-linecap="round" stroke-linejoin="round"/>
<path d="M49.5 43.5H65.5" stroke="black" stroke-width="3" stroke-linecap="round" stroke-linejoin="round"/>
<path d="M46.5 35.5L49.5 43.5V51.5C49.5 53.6217 50.3429 55.6566 51.8431 57.1569C53.3434 58.6571 55.3783 59.5 57.5 59.5C59.6217 59.5 61.6566 58.6571 63.1569 57.1569C64.6571 55.6566 65.5 53.6217 65.5 51.5V43.5L68.5 35.5" stroke="black" stroke-width="3" stroke-linecap="round" stroke-linejoin="round"/>
<path d="M52.5 71.5H62.5" stroke="black" stroke-width="3" stroke-linecap="round" stroke-linejoin="round"/>
<path d="M41.5 71.5H42.5" stroke="black" stroke-width="3" stroke-linecap="round" stroke-linejoin="round"/>
<path d="M72.5 71.5H73.5" stroke="black" stroke-width="3" stroke-linecap="round" stroke-linejoin="round"/>
<path d="M47.5 74.5V64.5L36.5 55.5L46.5 35.5H68.5L78.5 55.5L67.5 64.5V74.5" stroke="black" stroke-width="3" stroke-linecap="round" stroke-linejoin="round"/>
</svg>
